<svg xml:space="preserve" viewBox="0 0 400 400" y="0px" x="0px" id="GraphQL_Logo" xmlns:xlink="http://www.w3.org/1999/xlink" xmlns="http://www.w3.org/2000/svg">
<g>
	<g>
		<g>
			
				<rect height="320.3" width="16.6" fill="#E535AB" transform="matrix(-0.866 -0.5 0.5 -0.866 163.3196 363.3136)" y="-0.4" x="122"></rect>
		</g>
	</g>
	<g>
		<g>
			<rect height="16.6" width="320.3" fill="#E535AB" y="272.2" x="39.8"></rect>
		</g>
	</g>
	<g>
		<g>
			
				<rect height="16.6" width="185" fill="#E535AB" transform="matrix(-0.866 -0.5 0.5 -0.866 83.0693 663.3409)" y="312.2" x="37.9"></rect>
		</g>
	</g>
	<g>
		<g>
			
				<rect height="16.6" width="185" fill="#E535AB" transform="matrix(-0.866 -0.5 0.5 -0.866 463.3409 283.0693)" y="71.1" x="177.1"></rect>
		</g>
	</g>
	<g>
		<g>
			
				<rect height="185" width="16.6" fill="#E535AB" transform="matrix(-0.5 -0.866 0.866 -0.5 126.7903 232.1221)" y="-13" x="122.1"></rect>
		</g>
	</g>
	<g>
		<g>
			
				<rect height="16.6" width="320.3" fill="#E535AB" transform="matrix(-0.5 -0.866 0.866 -0.5 266.0828 473.3766)" y="151.6" x="109.6"></rect>
		</g>
	</g>
	<g>
		<g>
			<rect height="185" width="16.6" fill="#E535AB" y="107.5" x="52.5"></rect>
		</g>
	</g>
	<g>
		<g>
			<rect height="185" width="16.6" fill="#E535AB" y="107.5" x="330.9"></rect>
		</g>
	</g>
	<g>
		<g>
			
				<rect height="160.9" width="14.5" fill="#E535AB" transform="matrix(-0.5 -0.866 0.866 -0.5 126.7953 714.2875)" y="240.1" x="262.4"></rect>
		</g>
	</g>
	<path d="M369.5,297.9c-9.6,16.7-31,22.4-47.7,12.8c-16.7-9.6-22.4-31-12.8-47.7c9.6-16.7,31-22.4,47.7-12.8   C373.5,259.9,379.2,281.2,369.5,297.9" fill="#E535AB"></path>
	<path d="M90.9,137c-9.6,16.7-31,22.4-47.7,12.8c-16.7-9.6-22.4-31-12.8-47.7c9.6-16.7,31-22.4,47.7-12.8   C94.8,99,100.5,120.3,90.9,137" fill="#E535AB"></path>
	<path d="M30.5,297.9c-9.6-16.7-3.9-38,12.8-47.7c16.7-9.6,38-3.9,47.7,12.8c9.6,16.7,3.9,38-12.8,47.7   C61.4,320.3,40.1,314.6,30.5,297.9" fill="#E535AB"></path>
	<path d="M309.1,137c-9.6-16.7-3.9-38,12.8-47.7c16.7-9.6,38-3.9,47.7,12.8c9.6,16.7,3.9,38-12.8,47.7   C340.1,159.4,318.7,153.7,309.1,137" fill="#E535AB"></path>
	<path d="M200,395.8c-19.3,0-34.9-15.6-34.9-34.9c0-19.3,15.6-34.9,34.9-34.9c19.3,0,34.9,15.6,34.9,34.9   C234.9,380.1,219.3,395.8,200,395.8" fill="#E535AB"></path>
	<path d="M200,74c-19.3,0-34.9-15.6-34.9-34.9c0-19.3,15.6-34.9,34.9-34.9c19.3,0,34.9,15.6,34.9,34.9   C234.9,58.4,219.3,74,200,74" fill="#E535AB"></path>
</g>
</svg>
