<svg id="svg" version="1.1" xmlns="http://www.w3.org/2000/svg" xmlns:xlink="http://www.w3.org/1999/xlink" width="400" height="400" viewBox="0, 0, 400,400"><g id="svgg"><path id="path0" d="M76.800 200.000 L 76.800 324.800 201.600 324.800 L 326.400 324.800 326.400 200.000 L 326.400 75.200 201.600 75.200 L 76.800 75.200 76.800 200.000 M234.993 130.418 C 251.286 132.285,266.800 144.904,266.800 156.292 L 266.800 157.600 202.543 157.600 L 138.286 157.600 138.536 155.210 C 139.703 144.041,154.587 132.247,169.800 130.437 C 173.960 129.942,230.692 129.925,234.993 130.418 M237.080 187.633 C 248.752 189.885,259.128 196.366,264.071 204.494 C 265.622 207.045,266.952 211.522,266.731 213.452 L 266.600 214.600 219.800 214.710 C 164.746 214.840,165.821 214.918,156.200 210.093 C 145.207 204.581,136.327 193.179,138.538 187.417 C 138.966 186.302,231.227 186.504,237.080 187.633 M266.797 245.500 C 266.775 256.265,253.098 267.826,236.600 271.025 C 233.049 271.714,173.373 271.847,169.200 271.176 C 153.474 268.645,139.683 257.604,138.560 246.643 L 138.290 244.000 202.545 244.000 L 266.800 244.000 266.797 245.500 " stroke="none" fill="#14141c" fill-rule="evenodd"></path><path id="path1" d="" stroke="none" fill="#acacac" fill-rule="evenodd"></path><path id="path2" d="M76.597 200.000 C 76.597 268.750,76.644 296.875,76.700 262.500 C 76.756 228.125,76.756 171.875,76.700 137.500 C 76.644 103.125,76.597 131.250,76.597 200.000 M187.270 130.300 C 195.559 130.360,209.239 130.360,217.670 130.300 C 226.102 130.240,219.320 130.190,202.600 130.190 C 185.880 130.190,178.982 130.239,187.270 130.300 M238.600 131.200 C 239.040 131.389,239.670 131.544,240.000 131.544 C 240.378 131.544,240.304 131.417,239.800 131.200 C 239.360 131.011,238.730 130.856,238.400 130.856 C 238.022 130.856,238.096 130.983,238.600 131.200 M259.600 142.200 C 260.346 142.970,261.047 143.600,261.157 143.600 C 261.267 143.600,260.746 142.970,260.000 142.200 C 259.254 141.430,258.553 140.800,258.443 140.800 C 258.333 140.800,258.854 141.430,259.600 142.200 M138.509 156.000 C 138.509 156.990,138.587 157.395,138.682 156.900 C 138.778 156.405,138.778 155.595,138.682 155.100 C 138.587 154.605,138.509 155.010,138.509 156.000 M266.509 156.000 C 266.509 156.990,266.587 157.395,266.682 156.900 C 266.778 156.405,266.778 155.595,266.682 155.100 C 266.587 154.605,266.509 155.010,266.509 156.000 M138.559 187.362 C 138.441 187.671,138.418 188.526,138.508 189.262 C 138.656 190.470,138.678 190.435,138.736 188.902 L 138.800 187.203 186.300 187.100 L 233.800 186.997 186.287 186.898 C 145.789 186.815,138.743 186.883,138.559 187.362 M266.464 212.698 L 266.400 214.397 218.900 214.500 L 171.400 214.603 218.913 214.702 C 259.411 214.785,266.457 214.717,266.641 214.238 C 266.759 213.929,266.782 213.074,266.692 212.338 C 266.544 211.130,266.522 211.165,266.464 212.698 M138.509 245.600 C 138.509 246.590,138.587 246.995,138.682 246.500 C 138.778 246.005,138.778 245.195,138.682 244.700 C 138.587 244.205,138.509 244.610,138.509 245.600 M266.514 245.800 C 266.517 246.900,266.595 247.303,266.687 246.695 C 266.779 246.086,266.777 245.186,266.682 244.695 C 266.587 244.203,266.511 244.700,266.514 245.800 M259.781 259.300 L 258.200 261.000 259.900 259.419 C 260.835 258.549,261.600 257.784,261.600 257.719 C 261.600 257.416,261.252 257.719,259.781 259.300 M145.400 259.600 C 146.259 260.480,147.052 261.200,147.162 261.200 C 147.272 261.200,146.659 260.480,145.800 259.600 C 144.941 258.720,144.148 258.000,144.038 258.000 C 143.928 258.000,144.541 258.720,145.400 259.600 M154.800 266.196 C 154.800 266.470,157.249 267.684,157.432 267.501 C 157.519 267.414,156.962 267.044,156.195 266.678 C 155.428 266.312,154.800 266.095,154.800 266.196 M171.500 271.482 C 171.995 271.578,172.805 271.578,173.300 271.482 C 173.795 271.387,173.390 271.309,172.400 271.309 C 171.410 271.309,171.005 271.387,171.500 271.482 M231.900 271.482 C 232.395 271.578,233.205 271.578,233.700 271.482 C 234.195 271.387,233.790 271.309,232.800 271.309 C 231.810 271.309,231.405 271.387,231.900 271.482 " stroke="none" fill="#74747c" fill-rule="evenodd"></path><path id="path3" d="M139.100 75.100 C 173.475 75.156,229.725 75.156,264.100 75.100 C 298.475 75.044,270.350 74.997,201.600 74.997 C 132.850 74.997,104.725 75.044,139.100 75.100 M188.329 271.500 C 196.321 271.560,209.281 271.560,217.129 271.500 C 224.978 271.439,218.440 271.390,202.600 271.390 C 186.760 271.390,180.338 271.439,188.329 271.500 M139.100 325.100 C 173.475 325.156,229.725 325.156,264.100 325.100 C 298.475 325.044,270.350 324.997,201.600 324.997 C 132.850 324.997,104.725 325.044,139.100 325.100 " stroke="none" fill="#8c8c8c" fill-rule="evenodd"></path><path id="path4" d="" stroke="none" fill="#9c9c9c" fill-rule="evenodd"></path><path id="path5" d="M187.330 130.700 C 195.871 130.760,209.731 130.760,218.130 130.700 C 226.528 130.640,219.540 130.590,202.600 130.590 C 185.660 130.590,178.788 130.640,187.330 130.700 M138.934 156.400 L 139.000 157.400 202.700 157.402 L 266.400 157.404 202.828 157.301 L 139.255 157.198 139.062 156.299 C 138.892 155.509,138.877 155.521,138.934 156.400 M187.270 271.100 C 195.559 271.160,209.239 271.160,217.670 271.100 C 226.102 271.040,219.320 270.990,202.600 270.990 C 185.880 270.990,178.982 271.039,187.270 271.100 " stroke="none" fill="#cccccc" fill-rule="evenodd"></path><path id="path6" d="M326.597 200.000 C 326.597 268.750,326.644 296.875,326.700 262.500 C 326.756 228.125,326.756 171.875,326.700 137.500 C 326.644 103.125,326.597 131.250,326.597 200.000 M162.300 187.500 C 175.115 187.559,196.085 187.559,208.900 187.500 C 221.715 187.441,211.230 187.393,185.600 187.393 C 159.970 187.393,149.485 187.441,162.300 187.500 " stroke="none" fill="#bcbcbc" fill-rule="evenodd"></path><path id="path7" d="M195.669 214.300 C 208.577 214.358,229.817 214.358,242.869 214.300 C 255.921 214.241,245.360 214.194,219.400 214.194 C 193.440 214.193,182.761 214.241,195.669 214.300 M170.932 244.300 C 188.494 244.358,217.114 244.358,234.532 244.300 C 251.949 244.242,237.580 244.195,202.600 244.195 C 167.620 244.195,153.369 244.242,170.932 244.300 " stroke="none" fill="#dcdcdc" fill-rule="evenodd"></path></g></svg>