<svg viewBox="0, 0, 400,400" height="400" width="400" id="svg" xmlns:xlink="http://www.w3.org/1999/xlink" xmlns="http://www.w3.org/2000/svg">
  <g id="svgg">
    <path fill-rule="evenodd" fill="#747474" stroke="none" d="M97.400 75.047 C 73.994 77.488,64.924 85.607,60.590 108.000 C 59.319 114.566,59.161 117.166,58.828 137.000 C 58.365 164.537,56.801 170.560,48.263 177.679 C 44.162 181.098,40.697 182.552,30.754 185.025 C 22.022 187.198,19.600 189.786,19.600 196.947 C 19.600 204.018,22.482 206.596,32.614 208.586 C 55.857 213.153,58.765 218.398,58.793 255.800 C 58.828 301.907,67.585 315.772,97.800 317.559 C 110.855 318.331,116.196 315.022,115.487 306.600 C 114.975 300.513,111.277 297.591,102.082 296.006 C 92.153 294.295,87.663 291.805,85.257 286.677 C 82.976 281.816,82.439 275.768,82.228 252.600 C 81.880 214.424,78.204 205.335,60.233 198.224 C 56.652 196.806,55.540 195.629,57.749 195.593 C 60.635 195.546,70.376 189.674,73.441 186.134 C 80.517 177.963,81.986 170.325,82.239 140.400 C 82.546 104.019,84.429 99.548,100.600 96.793 C 112.222 94.813,116.026 91.652,115.507 84.402 C 114.986 77.119,108.695 73.869,97.400 75.047 M192.943 75.952 C 188.432 77.135,185.988 80.672,185.931 86.097 C 185.865 92.535,189.905 95.958,199.000 97.172 C 216.690 99.532,218.748 104.409,218.786 144.048 C 218.799 157.133,219.475 169.227,220.265 170.505 C 220.386 170.701,220.741 171.973,221.054 173.331 C 223.745 185.015,230.584 191.889,244.171 196.564 C 245.322 196.960,244.385 197.638,240.800 198.999 C 232.419 202.182,225.911 208.113,223.038 215.184 C 219.589 223.672,218.876 230.346,218.637 256.400 C 218.431 278.788,218.023 283.054,215.623 287.890 C 213.287 292.599,207.867 295.483,199.237 296.610 C 189.311 297.906,184.791 302.369,185.983 309.694 C 187.110 316.622,189.723 318.203,200.000 318.176 C 218.104 318.130,229.911 312.470,235.660 301.082 C 238.397 295.660,239.700 290.424,241.602 277.200 C 241.889 275.207,242.213 266.020,242.384 255.000 C 242.674 236.404,242.689 236.152,243.757 231.826 C 247.048 218.493,255.280 211.620,271.600 208.577 C 279.167 207.166,282.062 203.408,281.484 195.747 C 281.035 189.795,278.087 187.325,269.400 185.623 C 254.294 182.663,247.315 176.462,243.712 162.800 C 242.737 159.106,242.701 158.472,242.387 140.000 C 241.609 94.078,235.406 81.543,211.000 76.569 C 207.759 75.908,194.798 75.465,192.943 75.952 M276.514 105.587 C 272.458 108.060,271.327 118.161,274.388 124.575 C 276.374 128.736,284.550 135.970,307.191 153.600 C 308.463 154.590,311.820 157.278,314.652 159.574 C 317.483 161.869,327.990 170.320,338.000 178.353 C 360.330 196.272,360.972 196.800,361.118 197.397 C 361.182 197.662,360.552 198.397,359.718 199.031 C 358.883 199.665,355.347 202.528,351.861 205.392 C 348.374 208.256,344.931 211.050,344.210 211.600 C 343.489 212.150,341.662 213.618,340.149 214.861 C 338.637 216.105,335.150 218.954,332.400 221.192 C 329.650 223.430,325.261 227.003,322.646 229.131 C 320.031 231.259,317.220 233.540,316.397 234.200 C 312.052 237.689,304.211 244.073,301.400 246.410 C 298.376 248.925,294.638 251.952,285.400 259.368 C 274.467 268.145,271.881 272.811,272.792 282.114 C 273.879 293.219,279.060 293.814,290.800 284.181 C 293.110 282.286,297.232 278.905,299.959 276.668 C 302.687 274.430,306.557 271.247,308.559 269.592 C 311.660 267.031,323.743 257.142,332.254 250.202 C 336.004 247.143,358.680 228.490,361.417 226.212 C 362.747 225.105,366.608 221.950,369.997 219.200 C 381.223 210.092,384.251 206.270,385.231 199.971 C 386.535 191.595,383.175 186.232,369.984 175.630 C 366.583 172.896,362.020 169.206,359.844 167.430 C 357.668 165.653,353.854 162.580,351.369 160.600 C 348.884 158.620,341.065 152.320,333.992 146.600 C 326.920 140.880,318.223 133.859,314.667 130.997 C 311.110 128.136,305.860 123.894,303.000 121.570 C 281.517 104.120,280.212 103.332,276.514 105.587" id="path0"/>
    <path fill-rule="evenodd" fill="#ebbc24" stroke="none" d="M92.618 133.284 C 92.343 134.125,91.640 146.601,91.203 158.400 C 90.978 164.450,90.594 173.540,90.348 178.600 C 89.723 191.444,89.715 237.721,90.336 245.600 C 90.604 249.010,91.005 254.320,91.227 257.400 C 92.873 280.248,95.529 286.230,105.778 290.171 C 111.675 292.438,118.149 293.838,131.000 295.623 C 136.021 296.321,158.439 296.588,165.400 296.034 C 189.006 294.153,203.657 288.315,206.231 279.763 C 209.570 268.667,211.373 214.020,210.135 161.400 L 209.872 150.200 208.436 148.869 C 198.967 140.090,178.784 138.369,161.600 144.876 C 160.390 145.334,156.700 146.936,153.400 148.436 C 145.468 152.040,142.523 152.800,136.479 152.800 C 123.718 152.800,108.709 146.275,95.297 134.898 C 93.687 133.532,92.726 132.954,92.618 133.284" id="path1"/>
    <path fill-rule="evenodd" fill="#969696" stroke="none" d="M96.105 75.087 C 96.714 75.179,97.614 75.177,98.105 75.082 C 98.597 74.987,98.100 74.911,97.000 74.914 C 95.900 74.917,95.497 74.995,96.105 75.087 M105.700 75.076 C 106.085 75.176,106.715 75.176,107.100 75.076 C 107.485 74.975,107.170 74.893,106.400 74.893 C 105.630 74.893,105.315 74.975,105.700 75.076 M92.305 75.483 C 92.802 75.579,93.522 75.575,93.905 75.475 C 94.287 75.375,93.880 75.296,93.000 75.301 C 92.120 75.305,91.807 75.387,92.305 75.483 M196.900 75.496 C 198.165 75.575,200.235 75.575,201.500 75.496 C 202.765 75.416,201.730 75.351,199.200 75.351 C 196.670 75.351,195.635 75.416,196.900 75.496 M205.105 75.883 C 205.602 75.979,206.322 75.975,206.705 75.875 C 207.087 75.775,206.680 75.696,205.800 75.701 C 204.920 75.705,204.607 75.787,205.105 75.883 M82.875 77.473 C 81.926 77.809,81.221 78.154,81.307 78.240 C 81.393 78.327,82.440 78.051,83.632 77.628 C 84.824 77.205,85.530 76.860,85.200 76.861 C 84.870 76.862,83.824 77.138,82.875 77.473 M188.676 78.100 C 187.430 79.333,187.425 79.349,188.581 78.403 C 189.252 77.855,189.971 77.270,190.180 77.103 C 190.389 76.936,190.431 76.800,190.274 76.800 C 190.117 76.800,189.398 77.385,188.676 78.100 M214.400 77.400 C 215.170 77.697,216.070 77.939,216.400 77.939 C 216.730 77.939,216.370 77.697,215.600 77.400 C 214.830 77.103,213.930 76.861,213.600 76.861 C 213.270 76.861,213.630 77.103,214.400 77.400 M227.600 83.268 C 229.262 84.944,232.455 87.621,231.400 86.453 C 230.740 85.723,229.480 84.572,228.600 83.894 C 227.720 83.217,227.270 82.935,227.600 83.268 M70.185 85.300 L 68.200 87.400 70.300 85.415 C 72.251 83.571,72.583 83.200,72.285 83.200 C 72.222 83.200,71.277 84.145,70.185 85.300 M185.701 84.600 C 185.705 85.480,185.787 85.793,185.883 85.295 C 185.979 84.798,185.975 84.078,185.875 83.695 C 185.775 83.313,185.696 83.720,185.701 84.600 M185.653 87.800 C 185.615 89.085,186.828 92.123,187.559 92.575 C 187.802 92.725,187.635 92.227,187.187 91.469 C 186.740 90.710,186.219 89.304,186.031 88.344 C 185.752 86.926,185.681 86.825,185.653 87.800 M114.125 90.432 C 113.650 91.300,113.429 91.906,113.634 91.779 C 114.077 91.505,115.318 89.184,115.124 88.991 C 115.050 88.916,114.600 89.565,114.125 90.432 M188.833 93.839 C 189.361 94.476,192.387 96.157,192.592 95.928 C 192.655 95.858,191.719 95.219,190.513 94.510 C 189.306 93.800,188.550 93.499,188.833 93.839 M105.000 96.000 C 103.911 96.277,103.893 96.307,104.800 96.325 C 105.350 96.335,106.160 96.189,106.600 96.000 C 107.586 95.576,106.666 95.576,105.000 96.000 M95.784 97.760 C 94.896 98.038,93.816 98.490,93.384 98.763 C 92.612 99.253,92.612 99.256,93.400 98.974 C 93.840 98.817,95.280 98.366,96.600 97.973 C 97.920 97.579,98.640 97.256,98.200 97.255 C 97.760 97.254,96.673 97.481,95.784 97.760 M200.200 97.642 C 201.300 97.860,202.914 98.201,203.787 98.399 C 204.660 98.597,205.443 98.690,205.527 98.606 C 205.777 98.356,202.768 97.680,200.400 97.454 L 198.200 97.244 200.200 97.642 M62.249 99.415 C 62.112 99.773,62.015 100.366,62.034 100.733 C 62.053 101.100,62.227 100.869,62.421 100.220 C 62.798 98.958,62.665 98.333,62.249 99.415 M206.400 99.086 C 206.730 99.208,207.360 99.474,207.800 99.676 C 208.587 100.038,208.588 100.034,207.824 99.422 C 207.396 99.080,206.766 98.814,206.424 98.832 C 205.885 98.859,205.882 98.893,206.400 99.086 M238.254 99.800 C 238.674 101.703,239.248 102.846,238.956 101.200 C 238.820 100.430,238.546 99.530,238.349 99.200 C 238.114 98.808,238.081 99.016,238.254 99.800 M88.751 101.631 L 87.000 103.262 88.900 101.746 C 89.945 100.913,90.800 100.179,90.800 100.115 C 90.800 99.807,90.363 100.130,88.751 101.631 M210.600 101.079 C 211.888 102.394,214.481 104.443,213.600 103.450 C 213.050 102.829,212.060 101.950,211.400 101.496 C 210.740 101.042,210.380 100.854,210.600 101.079 M61.429 102.629 C 61.281 103.215,61.238 103.772,61.332 103.866 C 61.427 103.960,61.624 103.558,61.771 102.971 C 61.919 102.385,61.962 101.828,61.868 101.734 C 61.773 101.640,61.576 102.042,61.429 102.629 M273.781 108.437 C 273.429 109.118,273.212 109.745,273.299 109.832 C 273.386 109.919,273.756 109.362,274.122 108.595 C 274.944 106.870,274.659 106.738,273.781 108.437 M216.438 109.434 C 217.039 111.735,217.232 112.012,216.969 110.200 C 216.842 109.320,216.578 108.435,216.383 108.234 C 216.188 108.033,216.212 108.573,216.438 109.434 M287.600 108.949 C 287.600 109.059,288.950 110.252,290.600 111.600 C 292.250 112.948,293.600 113.961,293.600 113.851 C 293.600 113.741,292.250 112.548,290.600 111.200 C 288.950 109.852,287.600 108.839,287.600 108.949 M240.893 111.600 C 240.893 112.370,240.975 112.685,241.076 112.300 C 241.176 111.915,241.176 111.285,241.076 110.900 C 240.975 110.515,240.893 110.830,240.893 111.600 M272.509 113.600 C 272.509 114.590,272.587 114.995,272.682 114.500 C 272.778 114.005,272.778 113.195,272.682 112.700 C 272.587 112.205,272.509 112.610,272.509 113.600 M241.301 115.000 C 241.305 115.880,241.387 116.193,241.483 115.695 C 241.579 115.198,241.575 114.478,241.475 114.095 C 241.375 113.713,241.296 114.120,241.301 115.000 M272.501 118.600 C 272.505 119.480,272.587 119.793,272.683 119.295 C 272.779 118.798,272.775 118.078,272.675 117.695 C 272.575 117.313,272.496 117.720,272.501 118.600 M218.144 121.200 C 218.144 123.290,218.212 124.145,218.294 123.100 C 218.376 122.055,218.376 120.345,218.294 119.300 C 218.212 118.255,218.144 119.110,218.144 121.200 M58.901 120.200 C 58.905 121.080,58.987 121.393,59.083 120.895 C 59.179 120.398,59.175 119.678,59.075 119.295 C 58.975 118.913,58.896 119.320,58.901 120.200 M82.583 135.400 C 82.583 144.640,82.636 148.363,82.700 143.673 C 82.764 138.983,82.764 131.423,82.699 126.873 C 82.635 122.323,82.583 126.160,82.583 135.400 M300.000 118.926 C 300.000 119.036,300.900 119.879,302.000 120.800 C 303.100 121.721,304.000 122.384,304.000 122.274 C 304.000 122.164,303.100 121.321,302.000 120.400 C 300.900 119.479,300.000 118.816,300.000 118.926 M242.131 125.400 C 242.133 126.940,242.205 127.521,242.292 126.691 C 242.379 125.861,242.377 124.601,242.289 123.891 C 242.200 123.181,242.129 123.860,242.131 125.400 M58.580 138.200 C 58.580 145.900,58.634 148.993,58.699 145.074 C 58.765 141.155,58.765 134.855,58.699 131.074 C 58.634 127.293,58.580 130.500,58.580 138.200 M308.400 125.749 C 308.400 125.859,309.750 127.052,311.400 128.400 C 313.050 129.748,314.400 130.761,314.400 130.651 C 314.400 130.541,313.050 129.348,311.400 128.000 C 309.750 126.652,308.400 125.639,308.400 125.749 M275.176 126.670 C 275.407 127.148,276.452 128.425,277.498 129.507 C 278.841 130.896,278.987 130.993,277.996 129.837 C 277.224 128.937,276.179 127.660,275.674 127.000 C 275.138 126.299,274.931 126.162,275.176 126.670 M218.582 143.200 C 218.582 152.110,218.635 155.755,218.700 151.300 C 218.764 146.845,218.764 139.555,218.700 135.100 C 218.635 130.645,218.582 134.290,218.582 143.200 M242.579 144.000 C 242.579 151.150,242.633 154.075,242.699 150.500 C 242.766 146.925,242.766 141.075,242.699 137.500 C 242.633 133.925,242.579 136.850,242.579 144.000 M280.517 132.264 C 280.861 132.823,284.800 136.154,284.800 135.886 C 284.800 135.782,283.772 134.820,282.516 133.749 C 281.260 132.677,280.361 132.009,280.517 132.264 M320.800 135.749 C 320.800 135.859,322.150 137.052,323.800 138.400 C 325.450 139.748,326.800 140.761,326.800 140.651 C 326.800 140.541,325.450 139.348,323.800 138.000 C 322.150 136.652,320.800 135.639,320.800 135.749 M285.200 136.128 C 285.200 136.228,286.505 137.358,288.100 138.638 C 289.695 139.919,290.775 140.686,290.500 140.342 C 289.913 139.609,285.200 135.862,285.200 136.128 M291.321 141.071 C 291.480 141.330,292.367 142.140,293.290 142.871 C 294.214 143.602,294.839 143.988,294.679 143.729 C 294.520 143.470,293.633 142.660,292.710 141.929 C 291.786 141.198,291.161 140.812,291.321 141.071 M327.200 140.918 C 327.200 141.020,328.047 141.797,329.081 142.645 C 330.116 143.493,330.834 143.978,330.676 143.723 C 330.340 143.179,327.200 140.645,327.200 140.918 M295.200 144.100 C 295.200 144.222,297.450 146.151,300.200 148.384 C 302.950 150.618,305.200 152.358,305.200 152.251 C 305.200 152.144,303.265 150.489,300.900 148.572 C 298.535 146.655,296.285 144.815,295.900 144.481 C 295.515 144.148,295.200 143.977,295.200 144.100 M305.600 152.532 C 305.600 152.630,306.905 153.758,308.500 155.038 C 310.095 156.319,311.138 157.041,310.818 156.644 C 310.183 155.854,305.600 152.243,305.600 152.532 M58.131 155.400 C 58.133 156.940,58.205 157.521,58.292 156.691 C 58.379 155.861,58.377 154.601,58.289 153.891 C 58.200 153.181,58.129 153.860,58.131 155.400 M82.140 156.800 C 82.140 158.670,82.209 159.435,82.293 158.500 C 82.377 157.565,82.377 156.035,82.293 155.100 C 82.209 154.165,82.140 154.930,82.140 156.800 M345.962 156.126 C 346.582 156.904,349.600 159.368,349.600 159.096 C 349.600 159.002,348.655 158.137,347.500 157.174 C 346.345 156.210,345.653 155.739,345.962 156.126 M311.600 157.318 C 311.600 157.420,312.447 158.197,313.481 159.045 C 314.516 159.893,315.234 160.378,315.076 160.123 C 314.740 159.579,311.600 157.045,311.600 157.318 M350.000 159.318 C 350.000 159.420,350.847 160.197,351.881 161.045 C 352.916 161.893,353.634 162.378,353.476 162.123 C 353.140 161.579,350.000 159.045,350.000 159.318 M315.600 160.518 C 315.600 160.620,316.447 161.397,317.481 162.245 C 318.516 163.093,319.234 163.578,319.076 163.323 C 318.740 162.779,315.600 160.245,315.600 160.518 M324.000 167.296 C 324.000 167.416,326.610 169.608,329.800 172.166 C 332.990 174.724,335.600 176.730,335.600 176.624 C 335.600 176.518,333.305 174.596,330.500 172.352 C 327.695 170.108,325.085 168.003,324.700 167.674 C 324.315 167.345,324.000 167.175,324.000 167.296 M245.600 168.953 C 245.600 169.382,246.790 171.600,247.021 171.600 C 247.131 171.600,246.923 171.015,246.559 170.300 C 245.817 168.840,245.600 168.536,245.600 168.953 M52.702 172.267 C 51.878 173.465,51.380 174.336,51.596 174.202 C 52.109 173.885,54.519 170.382,54.339 170.217 C 54.262 170.147,53.526 171.069,52.702 172.267 M220.267 171.600 C 220.648 173.701,221.236 174.922,220.942 173.000 C 220.808 172.120,220.544 171.130,220.356 170.800 C 220.148 170.435,220.113 170.749,220.267 171.600 M364.700 171.258 C 365.287 171.991,370.000 175.738,370.000 175.472 C 370.000 175.372,368.695 174.242,367.100 172.962 C 365.505 171.681,364.425 170.914,364.700 171.258 M249.522 175.500 C 250.177 176.325,251.128 177.360,251.636 177.800 C 252.144 178.240,251.679 177.565,250.603 176.300 C 248.413 173.724,247.690 173.189,249.522 175.500 M49.578 176.300 L 48.200 177.800 49.700 176.422 C 50.525 175.663,51.200 174.988,51.200 174.922 C 51.200 174.616,50.862 174.904,49.578 176.300 M78.444 177.644 C 78.198 178.351,78.066 179.000,78.152 179.085 C 78.238 179.171,78.509 178.662,78.756 177.956 C 79.002 177.249,79.134 176.600,79.048 176.515 C 78.962 176.429,78.691 176.938,78.444 177.644 M336.000 176.918 C 336.000 177.020,336.847 177.797,337.881 178.645 C 338.916 179.493,339.634 179.978,339.476 179.723 C 339.140 179.179,336.000 176.645,336.000 176.918 M47.140 178.231 C 46.793 178.578,44.819 179.743,42.754 180.819 C 40.690 181.894,39.151 182.780,39.336 182.787 C 40.003 182.812,46.721 179.150,47.414 178.384 C 48.260 177.450,48.043 177.329,47.140 178.231 M374.800 179.318 C 374.800 179.428,376.060 180.635,377.600 182.000 C 379.140 183.365,380.400 184.392,380.400 184.282 C 380.400 184.172,379.140 182.965,377.600 181.600 C 376.060 180.235,374.800 179.208,374.800 179.318 M341.200 181.193 C 341.970 181.889,343.320 183.002,344.200 183.666 L 345.800 184.872 344.400 183.607 C 343.630 182.911,342.280 181.798,341.400 181.134 L 339.800 179.928 341.200 181.193 M256.800 181.396 C 256.800 181.670,259.249 182.884,259.432 182.701 C 259.519 182.614,258.962 182.244,258.195 181.878 C 257.428 181.512,256.800 181.295,256.800 181.396 M32.000 184.400 C 31.196 184.657,31.157 184.723,31.800 184.732 C 32.240 184.738,32.960 184.589,33.400 184.400 C 34.419 183.962,33.368 183.962,32.000 184.400 M264.400 184.358 C 264.730 184.561,265.720 184.832,266.600 184.961 C 267.733 185.126,267.908 185.097,267.200 184.862 C 265.364 184.252,263.757 183.963,264.400 184.358 M72.949 186.684 C 71.877 187.940,71.209 188.839,71.464 188.683 C 72.023 188.339,75.354 184.400,75.086 184.400 C 74.982 184.400,74.020 185.428,72.949 186.684 M346.000 184.973 C 346.000 185.083,348.700 187.345,352.000 190.000 C 355.300 192.655,358.000 194.737,358.000 194.627 C 358.000 194.517,355.300 192.255,352.000 189.600 C 348.700 186.945,346.000 184.863,346.000 184.973 M229.187 188.400 C 230.862 190.050,232.810 191.725,233.516 192.123 C 235.306 193.130,235.129 192.665,233.300 191.554 C 232.475 191.053,230.527 189.464,228.971 188.022 L 226.142 185.400 229.187 188.400 M272.033 186.144 C 272.125 186.223,272.740 186.408,273.400 186.556 C 274.276 186.752,274.438 186.715,274.000 186.418 C 273.460 186.053,271.632 185.798,272.033 186.144 M21.847 188.801 C 21.051 189.682,20.400 190.528,20.400 190.681 C 20.400 190.835,20.535 190.789,20.701 190.580 C 20.867 190.371,21.622 189.525,22.380 188.700 C 23.137 187.875,23.653 187.200,23.525 187.200 C 23.397 187.200,22.642 187.921,21.847 188.801 M278.800 189.400 C 279.546 190.170,280.247 190.800,280.357 190.800 C 280.467 190.800,279.946 190.170,279.200 189.400 C 278.454 188.630,277.753 188.000,277.643 188.000 C 277.533 188.000,278.054 188.630,278.800 189.400 M67.257 191.208 C 64.885 192.766,64.635 193.126,66.723 191.976 C 67.670 191.454,68.637 190.796,68.872 190.514 C 69.459 189.806,69.260 189.891,67.257 191.208 M19.849 191.815 C 19.712 192.173,19.618 192.856,19.641 193.333 C 19.667 193.881,19.803 193.686,20.010 192.803 C 20.360 191.316,20.265 190.733,19.849 191.815 M236.000 193.452 C 236.000 193.719,240.465 195.669,240.651 195.483 C 240.734 195.400,239.721 194.866,238.401 194.296 C 237.080 193.726,236.000 193.346,236.000 193.452 M61.600 194.200 C 61.050 194.514,60.780 194.772,61.000 194.772 C 61.220 194.772,61.850 194.514,62.400 194.200 C 62.950 193.886,63.220 193.628,63.000 193.628 C 62.780 193.628,62.150 193.886,61.600 194.200 M19.324 196.600 C 19.326 197.920,19.401 198.412,19.490 197.693 C 19.579 196.974,19.577 195.894,19.486 195.293 C 19.395 194.692,19.322 195.280,19.324 196.600 M281.728 197.200 C 281.728 198.630,281.801 199.215,281.889 198.500 C 281.978 197.785,281.978 196.615,281.889 195.900 C 281.801 195.185,281.728 195.770,281.728 197.200 M57.741 195.597 C 56.261 196.194,56.348 196.693,58.053 197.374 C 58.959 197.737,59.779 197.954,59.877 197.857 C 59.974 197.759,59.412 197.468,58.627 197.209 C 56.913 196.643,56.837 196.298,58.300 195.720 C 58.905 195.481,59.220 195.277,59.000 195.268 C 58.780 195.258,58.213 195.407,57.741 195.597 M243.948 196.759 C 244.390 197.040,244.352 197.190,243.748 197.541 C 243.337 197.780,243.203 197.981,243.451 197.988 C 243.699 197.995,244.103 197.758,244.348 197.463 C 244.815 196.900,244.569 196.396,243.833 196.406 C 243.595 196.409,243.647 196.568,243.948 196.759 M360.658 197.006 C 360.822 197.435,360.450 198.059,359.553 198.855 L 358.200 200.058 359.700 198.981 C 361.183 197.917,361.573 197.078,360.805 196.603 C 360.574 196.461,360.513 196.629,360.658 197.006 M61.200 198.600 C 61.750 198.914,62.380 199.172,62.600 199.172 C 62.820 199.172,62.550 198.914,62.000 198.600 C 61.450 198.286,60.820 198.028,60.600 198.028 C 60.380 198.028,60.650 198.286,61.200 198.600 M64.800 200.097 C 64.910 200.219,66.260 201.145,67.800 202.156 C 69.340 203.167,70.020 203.491,69.310 202.876 C 68.202 201.916,64.238 199.473,64.800 200.097 M236.300 200.629 C 234.805 201.440,234.896 201.778,236.400 201.000 C 237.060 200.659,237.600 200.294,237.600 200.190 C 237.600 199.932,237.557 199.947,236.300 200.629 M233.093 202.614 C 232.272 203.172,231.600 203.715,231.600 203.820 C 231.600 203.925,232.320 203.535,233.200 202.953 C 234.597 202.028,235.070 201.600,234.693 201.600 C 234.634 201.600,233.914 202.056,233.093 202.614 M351.400 205.449 L 349.400 207.281 351.500 205.603 C 353.318 204.151,353.895 203.576,353.500 203.608 C 353.445 203.613,352.500 204.441,351.400 205.449 M72.404 205.760 C 73.176 206.662,74.315 208.030,74.936 208.800 C 75.557 209.570,75.887 209.840,75.669 209.400 C 75.451 208.960,74.311 207.592,73.136 206.360 C 71.961 205.127,71.632 204.857,72.404 205.760 M228.587 206.500 L 226.200 209.000 228.700 206.613 C 230.075 205.299,231.200 204.174,231.200 204.113 C 231.200 203.817,230.805 204.178,228.587 206.500 M279.384 204.826 C 279.239 205.061,278.391 205.781,277.500 206.426 C 276.609 207.072,276.064 207.600,276.289 207.600 C 276.749 207.600,280.354 204.442,279.924 204.416 C 279.772 204.407,279.529 204.592,279.384 204.826 M23.200 205.817 C 23.200 206.109,26.446 207.652,26.789 207.523 C 26.970 207.456,26.237 207.006,25.159 206.525 C 24.082 206.045,23.200 205.726,23.200 205.817 M35.000 209.409 C 36.100 209.692,37.360 209.919,37.800 209.914 C 38.240 209.909,37.700 209.674,36.600 209.391 C 35.500 209.108,34.240 208.881,33.800 208.886 C 33.360 208.891,33.900 209.126,35.000 209.409 M267.081 209.487 C 265.806 209.822,264.833 210.166,264.920 210.253 C 265.007 210.340,266.500 210.062,268.239 209.634 C 269.977 209.207,270.950 208.863,270.400 208.869 C 269.850 208.875,268.356 209.153,267.081 209.487 M345.200 210.468 C 344.152 211.420,343.901 211.765,344.600 211.295 C 345.704 210.551,347.538 208.777,347.162 208.817 C 347.073 208.826,346.190 209.570,345.200 210.468 M379.178 211.500 L 377.800 213.000 379.300 211.622 C 380.125 210.863,380.800 210.188,380.800 210.122 C 380.800 209.816,380.462 210.104,379.178 211.500 M261.675 211.073 C 260.726 211.409,260.021 211.754,260.107 211.840 C 260.193 211.927,261.240 211.651,262.432 211.228 C 263.624 210.805,264.330 210.460,264.000 210.461 C 263.670 210.462,262.624 210.738,261.675 211.073 M42.346 211.416 C 43.086 211.737,43.806 211.994,43.946 211.986 C 44.466 211.957,42.176 210.828,41.600 210.830 C 41.270 210.831,41.606 211.094,42.346 211.416 M340.800 214.054 L 339.000 215.685 340.694 214.413 C 342.168 213.307,343.114 212.374,342.724 212.412 C 342.656 212.419,341.790 213.158,340.800 214.054 M255.493 214.214 C 254.672 214.772,254.000 215.315,254.000 215.420 C 254.000 215.525,254.720 215.135,255.600 214.553 C 256.997 213.628,257.470 213.200,257.093 213.200 C 257.034 213.200,256.314 213.656,255.493 214.214 M48.800 214.265 C 49.350 214.643,50.841 215.998,52.114 217.276 C 53.386 218.553,54.255 219.277,54.044 218.883 C 53.503 217.872,49.941 214.600,48.775 214.043 L 47.800 213.577 48.800 214.265 M78.229 214.800 C 78.376 215.350,78.664 216.070,78.867 216.400 C 79.125 216.817,79.157 216.695,78.971 216.000 C 78.824 215.450,78.536 214.730,78.333 214.400 C 78.075 213.983,78.043 214.105,78.229 214.800 M372.818 216.809 C 370.958 218.340,369.158 219.893,368.818 220.261 C 368.478 220.629,370.045 219.440,372.300 217.620 C 375.861 214.745,376.738 213.954,376.300 214.013 C 376.245 214.021,374.678 215.279,372.818 216.809 M251.186 217.900 L 249.000 220.200 251.300 218.014 C 253.437 215.982,253.783 215.600,253.486 215.600 C 253.424 215.600,252.389 216.635,251.186 217.900 M336.400 217.654 L 334.600 219.285 336.294 218.013 C 337.768 216.907,338.714 215.974,338.324 216.012 C 338.256 216.019,337.390 216.758,336.400 217.654 M220.800 220.800 C 220.530 221.924,220.389 222.923,220.487 223.020 C 220.584 223.117,220.877 222.270,221.138 221.138 C 221.400 220.006,221.541 219.007,221.452 218.919 C 221.363 218.830,221.070 219.676,220.800 220.800 M332.200 221.049 L 330.200 222.881 332.300 221.203 C 334.118 219.751,334.695 219.176,334.300 219.208 C 334.245 219.213,333.300 220.041,332.200 221.049 M247.000 223.200 C 246.659 223.860,246.469 224.400,246.579 224.400 C 246.689 224.400,247.059 223.860,247.400 223.200 C 247.741 222.540,247.931 222.000,247.821 222.000 C 247.711 222.000,247.341 222.540,247.000 223.200 M361.800 225.842 C 358.222 228.838,356.075 230.834,358.009 229.366 C 359.937 227.903,365.600 223.127,365.600 222.964 C 365.600 222.673,365.451 222.785,361.800 225.842 M325.800 226.263 C 324.088 227.831,324.036 227.918,325.438 226.863 C 326.919 225.749,328.327 224.376,327.949 224.415 C 327.867 224.424,326.900 225.255,325.800 226.263 M56.456 225.600 C 56.456 225.930,56.611 226.560,56.800 227.000 C 57.017 227.504,57.144 227.578,57.144 227.200 C 57.144 226.870,56.989 226.240,56.800 225.800 C 56.583 225.296,56.456 225.222,56.456 225.600 M57.701 231.400 C 57.705 232.280,57.787 232.593,57.883 232.095 C 57.979 231.598,57.975 230.878,57.875 230.495 C 57.775 230.113,57.696 230.520,57.701 231.400 M317.200 233.254 L 315.400 234.885 317.094 233.613 C 318.568 232.507,319.514 231.574,319.124 231.612 C 319.056 231.619,318.190 232.358,317.200 233.254 M352.200 233.849 L 350.200 235.681 352.300 234.003 C 354.118 232.551,354.695 231.976,354.300 232.008 C 354.245 232.013,353.300 232.841,352.200 233.849 M58.131 235.800 C 58.133 237.340,58.205 237.921,58.292 237.091 C 58.379 236.261,58.377 235.001,58.289 234.291 C 58.200 233.581,58.129 234.260,58.131 235.800 M82.142 236.600 C 82.141 238.580,82.208 239.440,82.292 238.512 C 82.376 237.584,82.377 235.964,82.295 234.912 C 82.212 233.860,82.143 234.620,82.142 236.600 M312.405 237.042 C 308.892 240.004,308.468 240.544,311.470 238.231 C 313.670 236.537,315.604 234.753,315.162 234.827 C 315.073 234.842,313.832 235.838,312.405 237.042 M242.893 236.400 C 242.893 237.170,242.975 237.485,243.076 237.100 C 243.176 236.715,243.176 236.085,243.076 235.700 C 242.975 235.315,242.893 235.630,242.893 236.400 M218.557 240.800 C 218.557 243.770,218.620 244.985,218.697 243.500 C 218.774 242.015,218.774 239.585,218.697 238.100 C 218.620 236.615,218.557 237.830,218.557 240.800 M347.204 237.828 C 343.386 241.053,342.901 241.739,346.520 238.796 C 349.257 236.571,350.341 235.558,349.924 235.618 C 349.856 235.627,348.632 236.622,347.204 237.828 M242.578 250.000 C 242.578 256.710,242.632 259.455,242.699 256.100 C 242.766 252.745,242.766 247.255,242.699 243.900 C 242.632 240.545,242.578 243.290,242.578 250.000 M58.580 254.200 C 58.580 261.900,58.634 264.993,58.699 261.074 C 58.765 257.155,58.765 250.855,58.699 247.074 C 58.634 243.293,58.580 246.500,58.580 254.200 M82.583 257.600 C 82.583 266.950,82.636 270.775,82.700 266.100 C 82.764 261.425,82.764 253.775,82.700 249.100 C 82.636 244.425,82.583 248.250,82.583 257.600 M341.000 243.049 L 339.000 244.881 341.100 243.203 C 342.918 241.751,343.495 241.176,343.100 241.208 C 343.045 241.213,342.100 242.041,341.000 243.049 M302.200 245.449 L 300.200 247.281 302.300 245.603 C 304.118 244.151,304.695 243.576,304.300 243.608 C 304.245 243.613,303.300 244.441,302.200 245.449 M336.400 246.840 L 334.200 248.870 336.500 246.987 C 338.519 245.333,339.068 244.788,338.700 244.804 C 338.645 244.807,337.610 245.723,336.400 246.840 M297.800 249.046 C 296.069 250.630,296.020 250.712,297.438 249.653 C 298.930 248.540,300.318 247.188,299.949 247.208 C 299.867 247.213,298.900 248.040,297.800 249.046 M218.573 258.200 C 218.573 263.480,218.630 265.585,218.699 262.877 C 218.768 260.169,218.768 255.849,218.699 253.277 C 218.629 250.705,218.572 252.920,218.573 258.200 M293.600 252.454 L 291.800 254.085 293.494 252.813 C 294.968 251.707,295.914 250.774,295.524 250.812 C 295.456 250.819,294.590 251.558,293.600 252.454 M287.200 257.654 L 285.400 259.285 287.094 258.013 C 288.568 256.907,289.514 255.974,289.124 256.012 C 289.056 256.019,288.190 256.758,287.200 257.654 M281.578 262.300 L 280.200 263.800 281.700 262.422 C 283.096 261.138,283.384 260.800,283.078 260.800 C 283.012 260.800,282.337 261.475,281.578 262.300 M316.600 263.049 L 314.600 264.881 316.700 263.203 C 318.518 261.751,319.095 261.176,318.700 261.208 C 318.645 261.213,317.700 262.041,316.600 263.049 M278.170 265.300 C 276.474 267.105,274.599 269.411,275.650 268.400 C 276.859 267.236,280.107 263.600,279.938 263.600 C 279.844 263.600,279.048 264.365,278.170 265.300 M312.000 266.840 L 309.800 268.870 312.100 266.987 C 314.119 265.333,314.668 264.788,314.300 264.804 C 314.245 264.807,313.210 265.723,312.000 266.840 M242.124 269.400 C 242.126 270.720,242.201 271.212,242.290 270.493 C 242.379 269.774,242.377 268.694,242.286 268.093 C 242.195 267.492,242.122 268.080,242.124 269.400 M307.400 270.649 L 305.400 272.481 307.500 270.803 C 309.318 269.351,309.895 268.776,309.500 268.808 C 309.445 268.813,308.500 269.641,307.400 270.649 M218.144 273.600 C 218.144 275.690,218.212 276.545,218.294 275.500 C 218.376 274.455,218.376 272.745,218.294 271.700 C 218.212 270.655,218.144 271.510,218.144 273.600 M58.901 272.600 C 58.905 273.480,58.987 273.793,59.083 273.295 C 59.179 272.798,59.175 272.078,59.075 271.695 C 58.975 271.313,58.896 271.720,58.901 272.600 M302.989 274.231 L 301.000 276.061 303.100 274.368 C 304.984 272.849,305.438 272.400,305.089 272.400 C 305.028 272.400,304.083 273.224,302.989 274.231 M272.509 276.800 C 272.509 277.790,272.587 278.195,272.682 277.700 C 272.778 277.205,272.778 276.395,272.682 275.900 C 272.587 275.405,272.509 275.810,272.509 276.800 M241.301 279.400 C 241.305 280.280,241.387 280.593,241.483 280.095 C 241.579 279.598,241.575 278.878,241.475 278.495 C 241.375 278.113,241.296 278.520,241.301 279.400 M272.509 281.600 C 272.509 282.590,272.587 282.995,272.682 282.500 C 272.778 282.005,272.778 281.195,272.682 280.700 C 272.587 280.205,272.509 280.610,272.509 281.600 M291.400 283.636 C 286.974 287.282,285.501 288.602,287.020 287.562 C 288.216 286.743,296.000 280.312,296.000 280.143 C 296.000 279.863,295.752 280.051,291.400 283.636 M240.893 282.800 C 240.893 283.570,240.975 283.885,241.076 283.500 C 241.176 283.115,241.176 282.485,241.076 282.100 C 240.975 281.715,240.893 282.030,240.893 282.800 M60.087 283.800 C 60.091 284.240,60.232 285.140,60.400 285.800 C 60.674 286.878,60.706 286.898,60.713 286.000 C 60.717 285.450,60.576 284.550,60.400 284.000 C 60.149 283.216,60.081 283.173,60.087 283.800 M216.353 285.189 C 216.021 286.270,215.891 287.067,216.064 286.961 C 216.421 286.740,217.331 283.598,217.104 283.371 C 217.023 283.289,216.685 284.107,216.353 285.189 M273.600 287.029 C 273.600 288.892,277.061 291.641,279.280 291.540 L 280.600 291.480 279.400 291.324 C 277.139 291.029,275.895 290.261,274.746 288.451 C 274.116 287.457,273.600 286.817,273.600 287.029 M86.330 288.700 C 86.761 289.305,87.528 290.160,88.034 290.600 C 88.540 291.040,88.251 290.545,87.392 289.500 C 85.673 287.408,85.103 286.979,86.330 288.700 M283.227 289.619 C 281.813 290.488,280.828 291.200,281.040 291.200 C 281.472 291.200,286.000 288.433,286.000 288.169 C 286.000 287.915,285.993 287.919,283.227 289.619 M213.626 290.507 C 212.487 291.911,212.442 292.029,213.363 291.200 C 214.320 290.338,215.456 288.786,215.114 288.807 C 215.051 288.811,214.382 289.576,213.626 290.507 M238.440 293.840 C 238.210 294.673,238.094 295.427,238.182 295.515 C 238.270 295.603,238.530 294.993,238.760 294.160 C 238.990 293.327,239.106 292.573,239.018 292.485 C 238.930 292.397,238.670 293.007,238.440 293.840 M209.200 293.600 C 208.430 294.022,207.944 294.374,208.120 294.383 C 208.544 294.405,210.800 293.232,210.800 292.990 C 210.800 292.728,210.777 292.737,209.200 293.600 M193.400 297.600 C 192.896 297.817,192.822 297.944,193.200 297.944 C 193.530 297.944,194.160 297.789,194.600 297.600 C 195.104 297.383,195.178 297.256,194.800 297.256 C 194.470 297.256,193.840 297.411,193.400 297.600 M65.200 300.800 C 65.866 302.120,66.502 303.200,66.612 303.200 C 66.722 303.200,66.266 302.120,65.600 300.800 C 64.934 299.480,64.298 298.400,64.188 298.400 C 64.078 298.400,64.534 299.480,65.200 300.800 M114.200 302.400 C 114.541 303.060,114.911 303.600,115.021 303.600 C 115.131 303.600,114.941 303.060,114.600 302.400 C 114.259 301.740,113.889 301.200,113.779 301.200 C 113.669 301.200,113.859 301.740,114.200 302.400 M185.856 304.484 C 185.721 304.988,185.627 305.760,185.646 306.200 C 185.665 306.640,185.845 306.298,186.046 305.440 C 186.436 303.778,186.270 302.940,185.856 304.484 M68.000 305.325 C 68.000 305.394,68.585 305.979,69.300 306.625 L 70.600 307.800 69.425 306.500 C 68.330 305.288,68.000 305.016,68.000 305.325 M229.132 309.522 C 226.416 311.772,225.763 312.444,227.400 311.307 C 228.792 310.340,231.895 307.631,231.600 307.639 C 231.490 307.642,230.380 308.490,229.132 309.522 M185.693 309.600 C 185.693 310.370,185.775 310.685,185.876 310.300 C 185.976 309.915,185.976 309.285,185.876 308.900 C 185.775 308.515,185.693 308.830,185.693 309.600 M224.700 312.629 C 223.205 313.440,223.296 313.778,224.800 313.000 C 225.460 312.659,226.000 312.294,226.000 312.190 C 226.000 311.932,225.957 311.947,224.700 312.629 M113.026 314.313 C 111.615 316.003,111.588 316.075,112.760 315.000 C 113.871 313.982,115.088 312.370,114.714 312.413 C 114.651 312.420,113.892 313.275,113.026 314.313 M80.000 314.200 C 80.550 314.514,81.180 314.772,81.400 314.772 C 81.620 314.772,81.350 314.514,80.800 314.200 C 80.250 313.886,79.620 313.628,79.400 313.628 C 79.180 313.628,79.450 313.886,80.000 314.200 M221.400 314.378 C 220.520 314.795,219.913 315.150,220.051 315.168 C 220.440 315.218,223.200 314.014,223.200 313.795 C 223.200 313.527,223.199 313.527,221.400 314.378 M217.600 315.800 C 216.830 316.097,216.470 316.345,216.800 316.352 C 217.130 316.358,217.940 316.117,218.600 315.814 C 220.145 315.107,219.426 315.097,217.600 315.800 M97.511 317.893 C 98.451 317.978,99.891 317.977,100.711 317.891 C 101.530 317.805,100.760 317.736,99.000 317.737 C 97.240 317.739,96.570 317.809,97.511 317.893 M104.705 317.883 C 105.202 317.979,105.922 317.975,106.305 317.875 C 106.687 317.775,106.280 317.696,105.400 317.701 C 104.520 317.705,104.207 317.787,104.705 317.883 M199.600 318.400 L 194.600 318.638 199.200 318.676 C 201.730 318.696,204.880 318.579,206.200 318.415 L 208.600 318.118 206.600 318.140 C 205.500 318.152,202.350 318.269,199.600 318.400" id="path2"/>
    <path fill-rule="evenodd" fill="#cdc6b1" stroke="none" d="M98.482 74.696 C 99.958 74.773,102.478 74.773,104.082 74.697 C 105.687 74.621,104.480 74.558,101.400 74.558 C 98.320 74.557,97.007 74.619,98.482 74.696 M93.105 75.083 C 93.602 75.179,94.322 75.175,94.705 75.075 C 95.087 74.975,94.680 74.896,93.800 74.901 C 92.920 74.905,92.607 74.987,93.105 75.083 M197.300 75.076 C 197.685 75.176,198.315 75.176,198.700 75.076 C 199.085 74.975,198.770 74.893,198.000 74.893 C 197.230 74.893,196.915 74.975,197.300 75.076 M204.100 75.476 C 204.485 75.576,205.115 75.576,205.500 75.476 C 205.885 75.375,205.570 75.293,204.800 75.293 C 204.030 75.293,203.715 75.375,204.100 75.476 M207.700 75.876 C 208.085 75.976,208.715 75.976,209.100 75.876 C 209.485 75.775,209.170 75.693,208.400 75.693 C 207.630 75.693,207.315 75.775,207.700 75.876 M85.400 76.400 C 84.381 76.838,85.432 76.838,86.800 76.400 C 87.604 76.143,87.643 76.077,87.000 76.068 C 86.560 76.062,85.840 76.211,85.400 76.400 M190.200 76.466 C 187.003 78.230,185.495 81.077,185.362 85.600 L 185.263 89.000 185.568 85.600 C 185.997 80.822,187.383 78.361,190.600 76.665 C 191.260 76.317,191.620 76.030,191.400 76.028 C 191.180 76.026,190.640 76.223,190.200 76.466 M112.848 77.853 C 113.644 78.704,114.513 79.760,114.778 80.200 C 115.188 80.880,115.225 80.889,115.027 80.260 C 114.719 79.280,113.200 77.422,112.200 76.802 C 111.760 76.529,112.052 77.002,112.848 77.853 M79.300 78.586 C 78.145 79.123,77.200 79.652,77.200 79.759 C 77.200 79.934,81.551 78.091,81.967 77.741 C 82.482 77.306,81.125 77.736,79.300 78.586 M218.576 78.409 C 219.663 78.833,220.616 79.118,220.693 79.040 C 220.884 78.850,217.707 77.595,217.092 77.619 C 216.821 77.629,217.489 77.985,218.576 78.409 M74.726 81.161 C 73.719 81.799,72.779 82.511,72.636 82.742 C 72.426 83.081,76.173 80.742,76.767 80.163 C 77.250 79.691,76.348 80.132,74.726 81.161 M225.400 81.465 C 226.422 82.433,228.933 84.071,228.327 83.374 C 227.957 82.948,227.057 82.259,226.327 81.843 C 225.597 81.427,225.180 81.257,225.400 81.465 M115.731 85.000 C 115.733 86.540,115.805 87.121,115.892 86.291 C 115.979 85.461,115.977 84.201,115.889 83.491 C 115.800 82.781,115.729 83.460,115.731 85.000 M70.000 85.000 C 69.028 85.990,68.323 86.800,68.433 86.800 C 68.543 86.800,69.428 85.990,70.400 85.000 C 71.372 84.010,72.077 83.200,71.967 83.200 C 71.857 83.200,70.972 84.010,70.000 85.000 M230.600 85.600 C 231.459 86.480,232.252 87.200,232.362 87.200 C 232.472 87.200,231.859 86.480,231.000 85.600 C 230.141 84.720,229.348 84.000,229.238 84.000 C 229.128 84.000,229.741 84.720,230.600 85.600 M66.874 88.900 C 65.606 90.751,63.995 93.780,64.009 94.284 C 64.014 94.458,64.602 93.516,65.317 92.192 C 66.031 90.867,67.029 89.202,67.535 88.492 C 68.041 87.781,68.361 87.200,68.246 87.200 C 68.132 87.200,67.514 87.965,66.874 88.900 M233.200 88.800 C 233.670 89.460,234.144 90.000,234.254 90.000 C 234.364 90.000,234.070 89.460,233.600 88.800 C 233.130 88.140,232.656 87.600,232.546 87.600 C 232.436 87.600,232.730 88.140,233.200 88.800 M236.128 93.962 C 237.048 95.921,237.870 97.456,237.955 97.373 C 238.142 97.192,234.919 90.400,234.647 90.400 C 234.542 90.400,235.209 92.003,236.128 93.962 M113.358 92.104 C 112.926 92.601,112.039 93.405,111.386 93.891 C 110.734 94.377,110.300 94.780,110.422 94.787 C 110.842 94.811,113.292 92.846,113.869 92.023 C 114.636 90.928,114.340 90.975,113.358 92.104 M188.000 93.400 C 188.746 94.170,189.447 94.800,189.557 94.800 C 189.667 94.800,189.146 94.170,188.400 93.400 C 187.654 92.630,186.953 92.000,186.843 92.000 C 186.733 92.000,187.254 92.630,188.000 93.400 M192.859 96.378 C 193.593 96.841,198.874 98.023,199.926 97.959 C 200.297 97.937,199.160 97.608,197.400 97.228 C 195.640 96.847,193.750 96.407,193.200 96.249 C 192.419 96.025,192.345 96.053,192.859 96.378 M99.600 97.220 C 98.926 97.449,99.251 97.484,100.600 97.328 C 101.700 97.201,102.675 97.031,102.767 96.949 C 103.082 96.668,100.599 96.880,99.600 97.220 M204.800 99.000 C 205.570 99.297,206.470 99.539,206.800 99.539 C 207.130 99.539,206.770 99.297,206.000 99.000 C 205.230 98.703,204.330 98.461,204.000 98.461 C 203.670 98.461,204.030 98.703,204.800 99.000 M90.769 100.372 C 89.796 101.017,88.460 102.132,87.800 102.850 C 86.907 103.822,87.111 103.717,88.600 102.438 C 89.700 101.493,91.230 100.385,92.000 99.977 C 92.770 99.569,93.206 99.227,92.969 99.218 C 92.731 99.208,91.741 99.728,90.769 100.372 M61.450 101.250 C 61.117 102.917,61.440 103.240,61.800 101.600 C 61.952 100.909,61.993 100.259,61.891 100.158 C 61.789 100.056,61.591 100.547,61.450 101.250 M208.400 100.150 C 208.400 100.244,209.041 100.699,209.824 101.161 C 210.607 101.623,211.136 101.820,210.999 101.598 C 210.731 101.164,208.400 99.866,208.400 100.150 M212.660 103.209 C 213.353 103.974,214.298 105.230,214.759 106.000 C 215.220 106.770,215.598 107.202,215.599 106.960 C 215.601 106.357,213.530 103.576,212.359 102.609 C 211.766 102.119,211.881 102.348,212.660 103.209 M85.781 105.637 C 85.429 106.318,85.212 106.945,85.299 107.032 C 85.386 107.119,85.756 106.562,86.122 105.795 C 86.944 104.070,86.659 103.938,85.781 105.637 M283.198 105.838 C 284.188 106.403,285.223 107.053,285.498 107.282 C 285.774 107.511,286.000 107.582,286.000 107.440 C 286.000 107.096,282.358 104.799,281.822 104.805 C 281.590 104.807,282.209 105.272,283.198 105.838 M288.000 108.918 C 288.000 109.020,288.847 109.797,289.881 110.645 C 290.916 111.493,291.634 111.978,291.476 111.723 C 291.140 111.179,288.000 108.645,288.000 108.918 M272.629 110.629 C 272.481 111.215,272.438 111.772,272.532 111.866 C 272.627 111.960,272.824 111.558,272.971 110.971 C 273.119 110.385,273.162 109.828,273.068 109.734 C 272.973 109.640,272.776 110.042,272.629 110.629 M241.293 112.400 C 241.293 113.170,241.375 113.485,241.476 113.100 C 241.576 112.715,241.576 112.085,241.476 111.700 C 241.375 111.315,241.293 111.630,241.293 112.400 M292.000 112.126 C 292.000 112.236,292.900 113.079,294.000 114.000 C 295.100 114.921,296.000 115.584,296.000 115.474 C 296.000 115.364,295.100 114.521,294.000 113.600 C 292.900 112.679,292.000 112.016,292.000 112.126 M217.502 117.600 C 217.617 120.130,217.776 122.275,217.855 122.367 C 218.121 122.672,217.934 117.028,217.612 115.000 C 217.407 113.715,217.368 114.643,217.502 117.600 M272.137 116.200 C 272.139 117.960,272.209 118.630,272.293 117.689 C 272.378 116.749,272.377 115.309,272.291 114.489 C 272.205 113.670,272.136 114.440,272.137 116.200 M241.709 115.600 C 241.709 116.590,241.787 116.995,241.882 116.500 C 241.978 116.005,241.978 115.195,241.882 114.700 C 241.787 114.205,241.709 114.610,241.709 115.600 M83.293 115.600 C 83.293 116.370,83.375 116.685,83.476 116.300 C 83.576 115.915,83.576 115.285,83.476 114.900 C 83.375 114.515,83.293 114.830,83.293 115.600 M58.909 117.200 C 58.909 118.190,58.987 118.595,59.082 118.100 C 59.178 117.605,59.178 116.795,59.082 116.300 C 58.987 115.805,58.909 116.210,58.909 117.200 M296.400 115.718 C 296.400 115.820,297.247 116.597,298.281 117.445 C 299.316 118.293,300.034 118.778,299.876 118.523 C 299.540 117.979,296.400 115.445,296.400 115.718 M242.131 120.200 C 242.133 121.740,242.205 122.321,242.292 121.491 C 242.379 120.661,242.377 119.401,242.289 118.691 C 242.200 117.981,242.129 118.660,242.131 120.200 M82.944 122.000 C 82.944 124.090,83.012 124.945,83.094 123.900 C 83.176 122.855,83.176 121.145,83.094 120.100 C 83.012 119.055,82.944 119.910,82.944 122.000 M58.528 122.000 C 58.528 123.430,58.601 124.015,58.689 123.300 C 58.778 122.585,58.778 121.415,58.689 120.700 C 58.601 119.985,58.528 120.570,58.528 122.000 M302.400 120.526 C 302.400 120.636,303.300 121.479,304.400 122.400 C 305.500 123.321,306.400 123.984,306.400 123.874 C 306.400 123.764,305.500 122.921,304.400 122.000 C 303.300 121.079,302.400 120.416,302.400 120.526 M272.830 122.400 C 272.828 122.976,273.957 125.266,273.986 124.746 C 273.994 124.606,273.737 123.886,273.416 123.146 C 273.094 122.406,272.831 122.070,272.830 122.400 M242.546 127.400 C 242.547 129.600,242.614 130.449,242.695 129.287 C 242.776 128.124,242.776 126.324,242.693 125.287 C 242.611 124.249,242.545 125.200,242.546 127.400 M306.800 124.128 C 306.800 124.228,308.105 125.358,309.700 126.638 C 311.295 127.919,312.375 128.686,312.100 128.342 C 311.513 127.609,306.800 123.862,306.800 124.128 M218.182 140.000 C 218.182 148.470,218.235 151.935,218.299 147.700 C 218.364 143.465,218.364 136.535,218.299 132.300 C 218.235 128.065,218.182 131.530,218.182 140.000 M58.178 140.200 C 58.179 147.240,58.233 150.064,58.299 146.475 C 58.366 142.886,58.366 137.126,58.299 133.675 C 58.233 130.224,58.178 133.160,58.178 140.200 M277.600 130.200 C 278.346 130.970,279.047 131.600,279.157 131.600 C 279.267 131.600,278.746 130.970,278.000 130.200 C 277.254 129.430,276.553 128.800,276.443 128.800 C 276.333 128.800,276.854 129.430,277.600 130.200 M312.800 128.961 C 312.800 129.071,314.600 130.618,316.800 132.400 C 319.000 134.182,320.800 135.549,320.800 135.439 C 320.800 135.329,319.000 133.782,316.800 132.000 C 314.600 130.218,312.800 128.851,312.800 128.961 M280.400 132.564 C 281.397 133.676,284.400 136.197,284.400 135.923 C 284.400 135.843,283.275 134.804,281.900 133.613 C 280.525 132.423,279.850 131.951,280.400 132.564 M92.258 132.275 C 92.116 132.417,92.033 133.808,92.074 135.367 C 92.142 137.986,92.158 138.034,92.285 136.000 C 92.498 132.574,92.540 132.559,95.297 134.898 C 104.965 143.099,122.244 152.141,127.945 151.982 C 128.305 151.972,126.530 151.334,124.000 150.564 C 115.368 147.939,105.016 142.236,97.254 135.831 C 92.966 132.292,92.543 131.991,92.258 132.275 M321.200 135.718 C 321.200 135.820,322.047 136.597,323.081 137.445 C 324.116 138.293,324.834 138.778,324.676 138.523 C 324.340 137.979,321.200 135.445,321.200 135.718 M284.800 136.161 C 284.800 136.271,286.600 137.818,288.800 139.600 C 291.000 141.382,292.800 142.749,292.800 142.639 C 292.800 142.529,291.000 140.982,288.800 139.200 C 286.600 137.418,284.800 136.051,284.800 136.161 M91.731 141.400 C 91.733 142.940,91.805 143.521,91.892 142.691 C 91.979 141.861,91.977 140.601,91.889 139.891 C 91.800 139.181,91.729 139.860,91.731 141.400 M325.324 139.077 C 325.660 139.621,328.800 142.155,328.800 141.882 C 328.800 141.780,327.953 141.003,326.919 140.155 C 325.884 139.307,325.166 138.822,325.324 139.077 M176.400 140.669 C 168.756 141.895,161.494 144.107,155.083 147.161 C 149.724 149.713,146.521 151.038,144.800 151.414 C 144.030 151.582,143.624 151.798,143.898 151.893 C 144.661 152.157,148.120 150.898,153.200 148.508 C 175.119 138.192,197.042 138.339,208.452 148.878 L 209.903 150.219 210.204 165.410 C 210.554 183.126,210.181 237.105,209.640 247.000 C 209.033 258.106,208.814 264.595,209.196 260.200 C 210.385 246.513,210.600 236.402,210.600 194.052 L 210.600 150.304 208.400 148.335 C 201.910 142.528,187.033 138.964,176.400 140.669 M293.200 142.928 C 293.200 143.028,294.505 144.158,296.100 145.438 C 297.695 146.719,298.775 147.486,298.500 147.142 C 297.913 146.409,293.200 142.662,293.200 142.928 M331.721 144.271 C 331.880 144.530,332.767 145.340,333.690 146.071 C 334.614 146.802,335.239 147.188,335.079 146.929 C 334.920 146.670,334.033 145.860,333.110 145.129 C 332.186 144.398,331.561 144.012,331.721 144.271 M91.054 151.493 C 89.351 189.351,88.886 215.390,89.560 235.152 C 89.996 247.948,91.024 263.174,91.480 263.598 C 91.599 263.709,91.575 262.270,91.428 260.400 C 90.664 250.740,90.354 245.138,89.978 234.200 C 89.544 221.564,89.763 192.787,90.401 178.600 C 91.169 161.529,91.695 145.961,91.510 145.776 C 91.405 145.672,91.200 148.244,91.054 151.493 M335.600 147.361 C 335.600 147.471,337.400 149.018,339.600 150.800 C 341.800 152.582,343.600 153.949,343.600 153.839 C 343.600 153.729,341.800 152.182,339.600 150.400 C 337.400 148.618,335.600 147.251,335.600 147.361 M299.324 147.877 C 299.660 148.421,302.800 150.955,302.800 150.682 C 302.800 150.580,301.953 149.803,300.919 148.955 C 299.884 148.107,299.166 147.622,299.324 147.877 M82.542 155.400 C 82.541 157.380,82.608 158.240,82.692 157.312 C 82.776 156.384,82.777 154.764,82.695 153.712 C 82.612 152.660,82.543 153.420,82.542 155.400 M130.075 152.460 C 131.309 152.807,141.616 152.817,142.484 152.472 C 142.860 152.322,140.013 152.200,136.158 152.200 C 132.303 152.200,129.566 152.317,130.075 152.460 M242.920 155.600 C 242.920 156.810,242.995 157.305,243.087 156.700 C 243.178 156.095,243.178 155.105,243.087 154.500 C 242.995 153.895,242.920 154.390,242.920 155.600 M345.400 155.367 C 347.526 157.277,351.600 160.500,351.600 160.272 C 351.600 160.088,346.667 156.012,344.812 154.665 C 344.255 154.260,344.520 154.576,345.400 155.367 M57.701 157.000 C 57.705 157.880,57.787 158.193,57.883 157.695 C 57.979 157.198,57.975 156.478,57.875 156.095 C 57.775 155.713,57.696 156.120,57.701 157.000 M309.200 155.770 C 309.200 155.875,311.045 157.439,313.300 159.247 C 315.555 161.054,317.715 162.801,318.100 163.128 C 318.485 163.456,318.800 163.625,318.800 163.505 C 318.800 163.384,316.640 161.552,314.000 159.433 C 311.360 157.314,309.200 155.665,309.200 155.770 M82.093 161.200 C 82.093 161.970,82.175 162.285,82.276 161.900 C 82.376 161.515,82.376 160.885,82.276 160.500 C 82.175 160.115,82.093 160.430,82.093 161.200 M56.849 161.400 C 56.816 161.840,56.696 162.650,56.583 163.200 L 56.377 164.200 56.806 163.219 C 57.042 162.679,57.161 161.869,57.072 161.419 C 56.913 160.621,56.907 160.621,56.849 161.400 M352.400 160.918 C 352.400 161.020,353.247 161.797,354.281 162.645 C 355.316 163.493,356.034 163.978,355.876 163.723 C 355.540 163.179,352.400 160.645,352.400 160.918 M218.901 163.400 C 218.905 164.280,218.987 164.593,219.083 164.095 C 219.179 163.598,219.175 162.878,219.075 162.495 C 218.975 162.113,218.896 162.520,218.901 163.400 M81.709 164.800 C 81.709 165.790,81.787 166.195,81.882 165.700 C 81.978 165.205,81.978 164.395,81.882 163.900 C 81.787 163.405,81.709 163.810,81.709 164.800 M244.048 163.600 C 244.042 163.930,244.283 164.740,244.586 165.400 C 245.293 166.945,245.303 166.226,244.600 164.400 C 244.303 163.630,244.055 163.270,244.048 163.600 M319.562 164.119 C 320.207 164.937,323.200 167.365,323.200 167.071 C 323.200 166.963,322.255 166.094,321.100 165.141 C 319.945 164.187,319.253 163.727,319.562 164.119 M356.400 164.118 C 356.400 164.252,358.200 165.818,360.400 167.600 C 362.600 169.382,364.400 170.757,364.400 170.656 C 364.400 170.554,362.915 169.257,361.100 167.773 C 359.285 166.289,357.485 164.805,357.100 164.475 C 356.715 164.146,356.400 163.985,356.400 164.118 M219.293 166.800 C 219.293 167.570,219.375 167.885,219.476 167.500 C 219.576 167.115,219.576 166.485,219.476 166.100 C 219.375 165.715,219.293 166.030,219.293 166.800 M54.081 169.409 C 53.602 170.394,53.294 171.200,53.397 171.200 C 53.668 171.200,55.284 167.951,55.103 167.770 C 55.019 167.686,54.559 168.424,54.081 169.409 M325.724 169.077 C 326.060 169.621,329.200 172.155,329.200 171.882 C 329.200 171.780,328.353 171.003,327.319 170.155 C 326.284 169.307,325.566 168.822,325.724 169.077 M329.600 172.170 C 329.600 172.275,331.445 173.839,333.700 175.647 C 335.955 177.454,338.115 179.201,338.500 179.528 C 338.885 179.856,339.200 180.025,339.200 179.905 C 339.200 179.784,337.040 177.952,334.400 175.833 C 331.760 173.714,329.600 172.065,329.600 172.170 M366.800 172.504 C 366.800 172.598,367.745 173.463,368.900 174.426 C 370.055 175.390,370.747 175.861,370.438 175.474 C 369.818 174.696,366.800 172.232,366.800 172.504 M50.013 175.300 C 48.823 176.675,48.351 177.350,48.964 176.800 C 50.076 175.803,52.597 172.800,52.323 172.800 C 52.243 172.800,51.204 173.925,50.013 175.300 M248.364 173.533 C 248.580 173.936,249.071 174.521,249.455 174.833 C 249.887 175.184,249.790 174.904,249.201 174.100 C 248.151 172.665,247.757 172.398,248.364 173.533 M250.600 176.364 C 251.436 177.329,254.400 179.783,254.400 179.510 C 254.400 179.423,253.365 178.472,252.100 177.397 C 250.835 176.321,250.160 175.856,250.600 176.364 M221.430 176.800 C 221.718 178.026,224.284 183.600,224.561 183.600 C 224.671 183.600,224.164 182.295,223.435 180.700 C 222.706 179.105,221.904 177.350,221.653 176.800 L 221.196 175.800 221.430 176.800 M372.982 177.688 C 373.872 178.506,374.749 179.181,374.931 179.188 C 375.113 179.195,374.663 178.716,373.931 178.124 C 371.687 176.311,371.283 176.125,372.982 177.688 M46.200 178.635 L 45.000 179.666 46.300 178.806 C 47.015 178.333,47.600 177.868,47.600 177.773 C 47.600 177.473,47.431 177.578,46.200 178.635 M77.321 180.925 C 76.865 181.864,75.546 183.866,74.390 185.374 C 73.235 186.882,72.480 187.998,72.714 187.853 C 73.934 187.099,78.739 179.806,78.303 179.370 C 78.219 179.286,77.778 179.986,77.321 180.925 M339.600 180.126 C 339.600 180.236,340.500 181.079,341.600 182.000 C 342.700 182.921,343.600 183.584,343.600 183.474 C 343.600 183.364,342.700 182.521,341.600 181.600 C 340.500 180.679,339.600 180.016,339.600 180.126 M376.000 180.104 C 376.000 180.198,376.945 181.063,378.100 182.026 C 379.255 182.990,379.947 183.461,379.638 183.074 C 379.018 182.296,376.000 179.832,376.000 180.104 M256.000 180.598 C 256.000 180.867,260.049 182.884,260.229 182.705 C 260.311 182.623,259.393 182.073,258.189 181.482 C 256.985 180.892,256.000 180.494,256.000 180.598 M37.200 182.783 C 35.990 183.187,35.152 183.536,35.338 183.559 C 35.826 183.618,40.000 182.376,40.000 182.172 C 40.000 181.901,39.549 181.999,37.200 182.783 M262.000 183.400 C 263.826 184.103,264.545 184.093,263.000 183.386 C 262.340 183.083,261.530 182.842,261.200 182.848 C 260.870 182.855,261.230 183.103,262.000 183.400 M344.000 183.718 C 344.000 183.820,344.847 184.597,345.881 185.445 C 346.916 186.293,347.634 186.778,347.476 186.523 C 347.140 185.979,344.000 183.445,344.000 183.718 M225.505 185.000 C 225.963 185.660,227.473 187.280,228.860 188.600 C 231.325 190.947,231.315 190.930,228.410 187.800 C 224.447 183.530,224.556 183.635,225.505 185.000 M381.644 186.042 C 382.390 187.055,383.232 188.225,383.515 188.642 C 383.798 189.059,383.630 188.636,383.142 187.701 C 382.653 186.767,381.812 185.597,381.271 185.101 C 380.545 184.436,380.643 184.682,381.644 186.042 M269.800 185.409 C 270.900 185.692,272.160 185.919,272.600 185.914 C 273.040 185.909,272.500 185.674,271.400 185.391 C 270.300 185.108,269.040 184.881,268.600 184.886 C 268.160 184.891,268.700 185.126,269.800 185.409 M25.000 186.153 C 23.900 186.673,22.460 187.707,21.801 188.449 L 20.602 189.800 22.041 188.480 C 22.832 187.754,24.542 186.723,25.840 186.189 C 27.138 185.656,27.930 185.216,27.600 185.213 C 27.270 185.210,26.100 185.633,25.000 186.153 M273.600 186.098 C 273.923 186.418,277.600 187.971,277.600 187.788 C 277.600 187.696,277.105 187.369,276.500 187.061 C 275.302 186.452,273.278 185.780,273.600 186.098 M279.274 189.456 C 280.068 190.366,280.843 191.505,280.996 191.986 C 281.148 192.467,281.360 192.773,281.466 192.667 C 281.817 192.316,280.493 190.220,279.150 189.000 C 277.838 187.808,277.839 187.811,279.274 189.456 M69.600 190.036 C 68.830 190.705,68.562 191.076,69.004 190.863 C 69.734 190.510,71.548 188.785,71.162 188.811 C 71.073 188.817,70.370 189.368,69.600 190.036 M354.300 192.058 C 354.887 192.791,359.600 196.538,359.600 196.272 C 359.600 196.172,358.295 195.042,356.700 193.762 C 355.105 192.481,354.025 191.714,354.300 192.058 M64.000 193.400 C 62.570 194.149,61.540 194.770,61.711 194.781 C 62.137 194.807,66.800 192.437,66.800 192.194 C 66.800 191.925,66.894 191.885,64.000 193.400 M234.000 192.579 C 234.000 192.689,234.540 193.059,235.200 193.400 C 235.860 193.741,236.400 193.931,236.400 193.821 C 236.400 193.711,235.860 193.341,235.200 193.000 C 234.540 192.659,234.000 192.469,234.000 192.579 M385.400 197.400 C 385.400 199.956,385.517 201.632,385.660 201.124 C 385.803 200.616,385.920 198.940,385.920 197.400 C 385.920 195.860,385.803 194.184,385.660 193.676 C 385.517 193.168,385.400 194.844,385.400 197.400 M59.400 195.414 C 58.400 195.896,58.366 195.951,59.200 195.748 C 60.333 195.471,61.607 194.821,61.000 194.830 C 60.780 194.833,60.060 195.096,59.400 195.414 M242.600 196.599 L 243.800 197.133 242.600 197.577 C 240.083 198.509,239.179 198.912,239.311 199.044 C 239.492 199.225,243.707 197.629,244.130 197.219 C 244.312 197.043,243.880 196.697,243.171 196.450 C 241.444 195.848,241.109 195.935,242.600 196.599 M282.093 197.200 C 282.093 197.970,282.175 198.285,282.276 197.900 C 282.376 197.515,282.376 196.885,282.276 196.500 C 282.175 196.115,282.093 196.430,282.093 197.200 M62.000 198.600 C 62.550 198.914,63.180 199.172,63.400 199.172 C 63.620 199.172,63.350 198.914,62.800 198.600 C 62.250 198.286,61.620 198.028,61.400 198.028 C 61.180 198.028,61.450 198.286,62.000 198.600 M64.000 199.379 C 64.000 199.489,64.540 199.859,65.200 200.200 C 65.860 200.541,66.400 200.731,66.400 200.621 C 66.400 200.511,65.860 200.141,65.200 199.800 C 64.540 199.459,64.000 199.269,64.000 199.379 M68.200 201.857 C 70.237 203.664,70.987 204.191,70.202 203.263 C 69.766 202.748,69.047 202.141,68.604 201.914 C 68.162 201.687,67.980 201.662,68.200 201.857 M350.800 205.441 C 349.590 206.444,348.240 207.639,347.800 208.097 C 347.360 208.555,348.395 207.797,350.100 206.411 C 352.817 204.204,353.490 203.575,353.100 203.609 C 353.045 203.613,352.010 204.438,350.800 205.441 M73.213 206.300 C 74.404 207.675,75.443 208.800,75.523 208.800 C 75.797 208.800,73.276 205.797,72.164 204.800 C 71.551 204.250,72.023 204.925,73.213 206.300 M228.386 206.300 L 226.200 208.600 228.500 206.414 C 229.765 205.211,230.800 204.176,230.800 204.114 C 230.800 203.817,230.418 204.163,228.386 206.300 M21.608 205.010 C 22.350 205.904,25.585 207.749,25.885 207.449 C 26.021 207.312,25.941 207.200,25.707 207.200 C 25.472 207.200,24.335 206.564,23.180 205.787 C 22.025 205.009,21.318 204.660,21.608 205.010 M278.200 206.268 C 277.320 207.057,276.960 207.516,277.400 207.288 C 278.141 206.904,280.351 204.779,279.970 204.817 C 279.876 204.826,279.080 205.479,278.200 206.268 M381.817 208.602 C 380.311 210.787,376.553 214.218,368.300 220.942 C 365.935 222.869,364.000 224.535,364.000 224.645 C 364.000 224.833,368.290 221.388,375.889 215.100 C 379.141 212.409,381.395 210.007,382.903 207.626 C 384.210 205.560,383.426 206.266,381.817 208.602 M274.400 208.200 C 273.630 208.497,273.270 208.745,273.600 208.752 C 273.930 208.758,274.740 208.517,275.400 208.214 C 276.945 207.507,276.226 207.497,274.400 208.200 M28.800 208.400 C 29.350 208.576,30.160 208.720,30.600 208.720 C 31.233 208.720,31.192 208.654,30.400 208.400 C 29.850 208.224,29.040 208.080,28.600 208.080 C 27.967 208.080,28.008 208.146,28.800 208.400 M344.589 210.637 L 342.600 212.475 344.700 210.800 C 346.553 209.323,347.073 208.800,346.689 208.800 C 346.628 208.800,345.683 209.627,344.589 210.637 M76.891 211.466 C 77.611 212.822,78.258 213.875,78.328 213.805 C 78.504 213.629,77.005 210.778,76.222 209.800 C 75.870 209.360,76.171 210.110,76.891 211.466 M37.800 210.388 C 39.340 210.810,40.780 211.154,41.000 211.150 C 41.885 211.136,38.441 210.081,36.780 209.858 C 35.460 209.680,35.723 209.817,37.800 210.388 M257.700 213.212 C 256.545 213.874,255.600 214.504,255.600 214.612 C 255.600 214.769,259.755 212.606,260.367 212.130 C 261.125 211.539,259.386 212.245,257.700 213.212 M44.833 212.530 C 45.445 213.006,49.600 215.169,49.600 215.012 C 49.600 214.750,45.499 212.409,45.033 212.404 C 44.832 212.402,44.742 212.458,44.833 212.530 M336.851 216.788 C 335.009 218.294,333.209 219.841,332.851 220.225 C 332.493 220.609,334.045 219.447,336.300 217.642 C 339.768 214.866,340.849 213.889,340.300 214.025 C 340.245 214.038,338.693 215.282,336.851 216.788 M252.066 217.500 L 249.337 220.200 251.968 217.824 C 253.416 216.518,254.771 215.303,254.980 215.124 C 255.189 214.946,255.233 214.800,255.077 214.800 C 254.922 214.800,253.567 216.015,252.066 217.500 M54.278 220.595 C 54.644 221.362,55.014 221.919,55.101 221.832 C 55.284 221.649,54.070 219.200,53.796 219.200 C 53.695 219.200,53.912 219.828,54.278 220.595 M81.285 225.000 C 81.277 225.660,81.410 227.100,81.582 228.200 C 81.836 229.835,81.897 229.945,81.917 228.800 C 81.930 228.030,81.797 226.590,81.620 225.600 C 81.388 224.291,81.296 224.128,81.285 225.000 M246.181 225.237 C 245.829 225.918,245.612 226.545,245.699 226.632 C 245.786 226.719,246.156 226.162,246.522 225.395 C 247.344 223.670,247.059 223.538,246.181 225.237 M325.400 226.249 L 323.400 228.081 325.500 226.403 C 327.318 224.951,327.895 224.376,327.500 224.408 C 327.445 224.413,326.500 225.241,325.400 226.249 M361.200 226.840 L 359.000 228.870 361.300 226.987 C 363.319 225.333,363.868 224.788,363.500 224.804 C 363.445 224.807,362.410 225.723,361.200 226.840 M219.301 227.800 C 219.305 228.680,219.387 228.993,219.483 228.495 C 219.579 227.998,219.575 227.278,219.475 226.895 C 219.375 226.513,219.296 226.920,219.301 227.800 M244.436 229.636 C 244.166 230.539,244.018 231.352,244.108 231.442 C 244.198 231.532,244.493 230.866,244.764 229.964 C 245.034 229.061,245.182 228.248,245.092 228.158 C 245.002 228.068,244.707 228.734,244.436 229.636 M321.000 229.849 L 319.000 231.681 321.100 230.003 C 322.918 228.551,323.495 227.976,323.100 228.008 C 323.045 228.013,322.100 228.841,321.000 229.849 M352.830 233.597 C 349.656 236.222,346.776 238.682,346.430 239.063 C 345.787 239.771,346.918 238.869,354.500 232.627 C 358.272 229.521,359.106 228.763,358.700 228.812 C 358.645 228.819,356.003 230.972,352.830 233.597 M57.301 231.000 C 57.305 231.880,57.387 232.193,57.483 231.695 C 57.579 231.198,57.575 230.478,57.475 230.095 C 57.375 229.713,57.296 230.120,57.301 231.000 M218.901 231.400 C 218.905 232.280,218.987 232.593,219.083 232.095 C 219.179 231.598,219.175 230.878,219.075 230.495 C 218.975 230.113,218.896 230.520,218.901 231.400 M82.101 231.800 C 82.105 232.680,82.187 232.993,82.283 232.495 C 82.379 231.998,82.375 231.278,82.275 230.895 C 82.175 230.513,82.096 230.920,82.101 231.800 M218.493 234.400 C 218.493 235.170,218.575 235.485,218.676 235.100 C 218.776 234.715,218.776 234.085,218.676 233.700 C 218.575 233.315,218.493 233.630,218.493 234.400 M82.540 237.600 C 82.540 239.470,82.609 240.235,82.693 239.300 C 82.777 238.365,82.777 236.835,82.693 235.900 C 82.609 234.965,82.540 235.730,82.540 237.600 M312.241 236.795 C 310.944 237.868,309.594 239.057,309.241 239.438 C 308.889 239.819,309.995 239.009,311.700 237.639 C 314.329 235.527,315.198 234.711,314.700 234.822 C 314.645 234.835,313.539 235.722,312.241 236.795 M242.920 239.600 C 242.920 240.810,242.995 241.305,243.087 240.700 C 243.178 240.095,243.178 239.105,243.087 238.500 C 242.995 237.895,242.920 238.390,242.920 239.600 M58.180 251.800 C 58.180 259.280,58.234 262.283,58.299 258.474 C 58.365 254.665,58.365 248.545,58.299 244.874 C 58.233 241.203,58.179 244.320,58.180 251.800 M218.182 254.800 C 218.182 263.270,218.235 266.735,218.299 262.500 C 218.364 258.265,218.364 251.335,218.299 247.100 C 218.235 242.865,218.182 246.330,218.182 254.800 M343.400 241.449 L 341.400 243.281 343.500 241.603 C 345.318 240.151,345.895 239.576,345.500 239.608 C 345.445 239.613,344.500 240.441,343.400 241.449 M306.200 241.849 L 304.200 243.681 306.300 242.003 C 308.118 240.551,308.695 239.976,308.300 240.008 C 308.245 240.013,307.300 240.841,306.200 241.849 M338.404 245.428 C 334.586 248.653,334.101 249.339,337.720 246.396 C 340.457 244.171,341.541 243.158,341.124 243.218 C 341.056 243.227,339.832 244.222,338.404 245.428 M299.800 247.049 L 297.800 248.881 299.900 247.203 C 301.718 245.751,302.295 245.176,301.900 245.208 C 301.845 245.213,300.900 246.041,299.800 247.049 M295.400 250.649 L 293.400 252.481 295.500 250.803 C 297.318 249.351,297.895 248.776,297.500 248.808 C 297.445 248.813,296.500 249.641,295.400 250.649 M330.666 251.768 C 328.722 253.379,326.832 255.017,326.466 255.409 C 326.100 255.801,327.655 254.620,329.923 252.785 C 333.529 249.867,334.771 248.748,334.324 248.820 C 334.256 248.831,332.610 250.157,330.666 251.768 M288.641 255.995 C 287.344 257.068,285.994 258.257,285.641 258.638 C 285.289 259.019,286.395 258.209,288.100 256.839 C 290.729 254.727,291.598 253.911,291.100 254.022 C 291.045 254.035,289.939 254.922,288.641 255.995 M318.451 261.787 C 314.629 264.944,311.209 267.846,310.851 268.235 C 310.075 269.080,312.245 267.355,319.900 261.044 C 324.779 257.020,326.031 255.898,325.500 256.024 C 325.445 256.037,322.273 258.630,318.451 261.787 M281.178 262.300 L 279.800 263.800 281.300 262.422 C 282.696 261.138,282.984 260.800,282.678 260.800 C 282.612 260.800,281.937 261.475,281.178 262.300 M242.551 266.400 C 242.551 268.930,242.616 269.965,242.696 268.700 C 242.775 267.435,242.775 265.365,242.696 264.100 C 242.616 262.835,242.551 263.870,242.551 266.400 M277.578 265.500 L 276.200 267.000 277.700 265.622 C 279.096 264.338,279.384 264.000,279.078 264.000 C 279.012 264.000,278.337 264.675,277.578 265.500 M91.857 266.800 C 92.512 274.821,95.109 283.509,97.593 285.993 C 106.895 295.295,147.539 299.889,177.629 295.039 C 194.754 292.278,204.910 286.865,206.734 279.523 C 207.455 276.618,207.229 276.299,206.429 279.095 C 204.169 286.997,194.169 292.082,175.200 294.976 C 165.186 296.504,139.995 296.873,131.000 295.623 C 118.149 293.838,111.675 292.438,105.778 290.171 C 96.370 286.553,95.179 284.494,92.028 266.400 L 91.645 264.200 91.857 266.800 M208.188 267.388 C 208.031 269.064,207.998 270.531,208.114 270.648 C 208.231 270.764,208.455 269.488,208.612 267.812 C 208.769 266.136,208.802 264.669,208.686 264.552 C 208.569 264.436,208.345 265.712,208.188 267.388 M58.531 270.600 C 58.533 272.140,58.605 272.721,58.692 271.891 C 58.779 271.061,58.777 269.801,58.689 269.091 C 58.600 268.381,58.529 269.060,58.531 270.600 M82.942 271.400 C 82.941 273.380,83.008 274.240,83.092 273.312 C 83.176 272.384,83.177 270.764,83.095 269.712 C 83.012 268.660,82.943 269.420,82.942 271.400 M273.265 271.817 C 273.009 272.378,272.807 273.054,272.816 273.319 C 272.824 273.583,273.097 273.188,273.422 272.439 C 274.105 270.865,273.961 270.290,273.265 271.817 M302.815 274.621 C 300.293 276.699,297.953 278.697,297.615 279.062 C 297.277 279.426,299.303 277.867,302.117 275.596 C 306.572 272.003,308.004 270.738,307.524 270.822 C 307.456 270.833,305.337 272.543,302.815 274.621 M207.433 273.633 C 207.283 274.766,207.241 275.774,207.339 275.872 C 207.437 275.971,207.645 275.128,207.800 274.000 C 207.955 272.872,207.998 271.864,207.894 271.761 C 207.791 271.658,207.584 272.500,207.433 273.633 M242.131 274.200 C 242.133 275.740,242.205 276.321,242.292 275.491 C 242.379 274.661,242.377 273.401,242.289 272.691 C 242.200 271.981,242.129 272.660,242.131 274.200 M217.677 274.041 C 217.635 275.274,217.517 277.434,217.415 278.841 L 217.230 281.400 217.623 279.000 C 217.838 277.680,217.956 275.520,217.884 274.200 L 217.754 271.800 217.677 274.041 M58.914 275.800 C 58.917 276.900,58.995 277.303,59.087 276.695 C 59.179 276.086,59.177 275.186,59.082 274.695 C 58.987 274.203,58.911 274.700,58.914 275.800 M83.301 277.800 C 83.305 278.680,83.387 278.993,83.483 278.495 C 83.579 277.998,83.575 277.278,83.475 276.895 C 83.375 276.513,83.296 276.920,83.301 277.800 M272.137 279.400 C 272.139 281.160,272.209 281.830,272.293 280.889 C 272.378 279.949,272.377 278.509,272.291 277.689 C 272.205 276.870,272.136 277.640,272.137 279.400 M241.709 278.800 C 241.709 279.790,241.787 280.195,241.882 279.700 C 241.978 279.205,241.978 278.395,241.882 277.900 C 241.787 277.405,241.709 277.810,241.709 278.800 M59.293 279.600 C 59.293 280.370,59.375 280.685,59.476 280.300 C 59.576 279.915,59.576 279.285,59.476 278.900 C 59.375 278.515,59.293 278.830,59.293 279.600 M292.823 282.819 C 290.745 284.559,288.765 286.284,288.423 286.652 C 288.080 287.020,289.642 285.831,291.894 284.009 C 295.505 281.087,297.218 279.541,296.749 279.627 C 296.667 279.642,294.900 281.078,292.823 282.819 M241.293 282.000 C 241.293 282.770,241.375 283.085,241.476 282.700 C 241.576 282.315,241.576 281.685,241.476 281.300 C 241.375 280.915,241.293 281.230,241.293 282.000 M214.896 288.149 C 214.657 288.673,213.870 289.799,213.146 290.651 C 212.039 291.954,212.006 292.042,212.940 291.207 C 214.151 290.124,215.800 287.667,215.511 287.377 C 215.411 287.278,215.135 287.625,214.896 288.149 M285.400 288.660 C 284.300 289.438,282.680 290.414,281.800 290.829 C 280.920 291.243,280.492 291.586,280.849 291.591 C 281.488 291.600,287.600 287.813,287.600 287.408 C 287.600 287.105,287.582 287.115,285.400 288.660 M60.867 289.000 C 60.861 289.852,61.892 293.277,61.950 292.600 C 61.969 292.380,61.734 291.300,61.428 290.200 C 61.122 289.100,60.869 288.560,60.867 289.000 M274.364 289.133 C 274.580 289.536,275.071 290.121,275.455 290.433 C 275.887 290.784,275.790 290.504,275.201 289.700 C 274.151 288.265,273.757 287.998,274.364 289.133 M88.399 290.420 C 90.154 292.043,93.103 293.831,93.452 293.482 C 93.547 293.386,93.040 293.065,92.323 292.768 C 91.607 292.472,90.026 291.447,88.810 290.492 L 86.600 288.755 88.399 290.420 M206.400 294.420 C 205.410 294.825,204.870 295.162,205.200 295.168 C 205.530 295.174,206.520 294.838,207.400 294.422 C 209.443 293.455,208.761 293.453,206.400 294.420 M95.638 294.398 C 95.990 294.603,97.070 294.870,98.038 294.992 L 99.800 295.214 97.800 294.624 C 95.493 293.945,94.726 293.864,95.638 294.398 M106.887 296.774 C 108.144 297.176,109.854 297.891,110.687 298.362 C 112.040 299.128,112.103 299.136,111.284 298.432 C 110.268 297.560,106.355 295.988,105.285 296.022 C 104.908 296.033,105.629 296.372,106.887 296.774 M197.000 296.400 C 195.930 296.672,195.908 296.705,196.800 296.705 C 197.350 296.705,198.340 296.568,199.000 296.400 C 200.070 296.128,200.092 296.095,199.200 296.095 C 198.650 296.095,197.660 296.232,197.000 296.400 M193.600 297.218 C 193.162 297.515,193.324 297.552,194.200 297.356 C 195.671 297.027,195.990 296.798,194.967 296.806 C 194.545 296.809,193.930 296.995,193.600 297.218 M190.100 298.796 C 189.385 299.232,188.800 299.675,188.800 299.781 C 188.800 299.886,189.430 299.601,190.200 299.147 C 190.970 298.693,191.600 298.249,191.600 298.160 C 191.600 297.905,191.474 297.958,190.100 298.796 M236.278 300.220 C 234.809 303.214,234.945 303.569,236.446 300.660 C 237.110 299.373,237.586 298.253,237.504 298.171 C 237.423 298.089,236.871 299.011,236.278 300.220 M113.844 301.180 C 114.088 301.521,114.488 302.160,114.732 302.600 C 114.976 303.040,115.181 303.185,115.188 302.922 C 115.195 302.660,114.795 302.021,114.300 301.503 C 113.805 300.985,113.600 300.840,113.844 301.180 M186.246 302.858 C 185.177 305.003,184.813 309.471,185.554 311.359 C 185.718 311.777,185.781 310.517,185.694 308.559 C 185.552 305.357,185.638 304.801,186.554 303.020 C 187.114 301.930,187.509 300.976,187.432 300.899 C 187.355 300.822,186.821 301.703,186.246 302.858 M233.196 305.500 C 232.250 306.765,231.789 307.540,232.172 307.223 C 232.889 306.628,235.365 303.200,235.077 303.200 C 234.988 303.200,234.141 304.235,233.196 305.500 M67.487 305.039 C 68.616 306.628,73.324 311.038,74.499 311.607 C 75.042 311.871,74.923 311.693,74.200 311.160 C 73.540 310.674,71.562 308.819,69.804 307.038 C 68.046 305.257,67.003 304.358,67.487 305.039 M115.731 307.800 C 115.733 309.340,115.805 309.921,115.892 309.091 C 115.979 308.261,115.977 307.001,115.889 306.291 C 115.800 305.581,115.729 306.260,115.731 307.800 M229.400 309.844 L 227.800 311.276 229.500 310.004 C 230.963 308.910,231.491 308.383,231.100 308.406 C 231.045 308.409,230.280 309.056,229.400 309.844 M76.200 312.636 C 77.059 313.327,80.435 314.899,80.633 314.700 C 80.699 314.635,79.548 313.999,78.076 313.287 C 76.604 312.576,75.760 312.283,76.200 312.636 M114.800 312.332 C 114.800 312.588,114.132 313.563,113.315 314.499 C 111.905 316.113,111.896 316.139,113.149 315.000 C 114.600 313.681,115.393 312.460,115.032 312.099 C 114.905 311.971,114.800 312.076,114.800 312.332 M186.018 312.641 C 185.957 314.142,190.676 318.424,192.345 318.384 C 192.705 318.376,192.378 318.099,191.618 317.769 C 189.481 316.842,187.674 315.302,186.816 313.679 C 186.387 312.865,186.027 312.398,186.018 312.641 M223.900 313.429 C 222.405 314.240,222.496 314.578,224.000 313.800 C 224.660 313.459,225.200 313.094,225.200 312.990 C 225.200 312.732,225.157 312.747,223.900 313.429 M90.200 317.408 C 95.692 318.763,111.764 318.430,110.324 316.991 C 110.235 316.902,109.287 317.093,108.218 317.415 C 105.998 318.083,98.611 318.186,94.200 317.610 C 87.830 316.778,87.603 316.767,90.200 317.408 M212.600 317.416 L 210.600 317.956 212.400 317.727 C 213.390 317.601,214.560 317.352,215.000 317.174 C 216.247 316.670,214.842 316.812,212.600 317.416 M205.105 318.683 C 205.602 318.779,206.322 318.775,206.705 318.675 C 207.087 318.575,206.680 318.496,205.800 318.501 C 204.920 318.505,204.607 318.587,205.105 318.683 M197.111 319.093 C 198.051 319.178,199.491 319.177,200.311 319.091 C 201.130 319.005,200.360 318.936,198.600 318.937 C 196.840 318.939,196.170 319.009,197.111 319.093" id="path3"/>
  </g>
</svg>