<?xml version="1.0" encoding="UTF-8" standalone="no"?><svg xmlns="http://www.w3.org/2000/svg" xmlns:xlink="http://www.w3.org/1999/xlink" contentStyleType="text/css" height="380px" preserveAspectRatio="none" style="width:155px;height:380px;background:#FFFFFF;" version="1.1" viewBox="0 0 155 380" width="155px" zoomAndPan="magnify"><defs/><g><!--MD5=[9f2b6c1af80dfd2e22ea1a846298108a]
class ShortenedUrl--><g id="elem_ShortenedUrl"><rect codeLine="2" fill="#F1F1F1" height="206.4844" id="ShortenedUrl" rx="2.5" ry="2.5" style="stroke:#181818;stroke-width:0.5;" width="141" x="7" y="7"/><ellipse cx="33.7" cy="23" fill="#ADD1B2" rx="11" ry="11" style="stroke:#181818;stroke-width:1.0;"/><path d="M35.7,19.5 Q35.9031,19 36.1375,18.75 Q36.3719,18.5 36.6375,18.5 Q37.1063,18.5 37.4031,18.7813 Q37.7,19.0625 37.7,19.7188 L37.7,21.2813 Q37.7,21.9375 37.4188,22.2188 Q37.1375,22.5 36.7,22.5 Q36.3094,22.5 36.0594,22.3281 Q35.8094,22.1563 35.7,21.7031 Q35.6531,21.3906 35.4813,21.2188 Q35.1688,20.8906 34.6063,20.7031 Q34.0438,20.5 33.4813,20.5 Q32.7781,20.5 32.1844,20.7813 Q31.6063,21.0625 31.1531,21.6875 Q30.7,22.3125 30.7,23.1719 L30.7,24.0938 Q30.7,25.125 31.5438,25.8125 Q32.3875,26.5 33.8875,26.5 Q34.7781,26.5 35.4031,26.2969 Q35.7625,26.1875 36.1688,25.8281 Q36.4344,25.625 36.575,25.5625 Q36.7156,25.5 36.8875,25.5 Q37.2156,25.5 37.45,25.7656 Q37.7,26.0156 37.7,26.375 Q37.7,26.7188 37.3563,27.125 Q36.8563,27.7188 36.0594,28.0469 Q35.0125,28.5 33.7313,28.5 Q32.2313,28.5 31.0281,27.9063 Q30.0594,27.4375 29.3719,26.4219 Q28.7,25.4063 28.7,24.2031 L28.7,23.1094 Q28.7,21.8594 29.2938,20.7656 Q29.9031,19.6719 30.95,19.0938 Q32.0125,18.5 33.2,18.5 Q33.9188,18.5 34.5438,18.75 Q35.1688,19 35.7,19.5 Z " fill="#000000"/><text fill="#000000" font-family="sans-serif" font-size="14" lengthAdjust="spacing" textLength="83" x="50.3" y="28.7285">ShortenedUrl</text><line style="stroke:#181818;stroke-width:0.5;" x1="8" x2="147" y1="39" y2="39"/><text fill="#000000" font-family="sans-serif" font-size="14" lengthAdjust="spacing" textLength="54" x="13" y="57.5332">id: string</text><text fill="#000000" font-family="sans-serif" font-size="14" lengthAdjust="spacing" textLength="116" x="13" y="75.1426">createdDate: Date</text><text fill="#000000" font-family="sans-serif" font-size="14" lengthAdjust="spacing" textLength="129" x="13" y="92.752">expirationDate: Date</text><text fill="#000000" font-family="sans-serif" font-size="14" lengthAdjust="spacing" textLength="98" x="13" y="110.3613">originalUrl: URL</text><text fill="#000000" font-family="sans-serif" font-size="14" lengthAdjust="spacing" textLength="126" x="13" y="127.9707">customAlias?: string</text><text fill="#000000" font-family="sans-serif" font-size="14" lengthAdjust="spacing" textLength="84" x="13" y="145.5801">userId?: User</text><line style="stroke:#181818;stroke-width:0.5;" x1="8" x2="147" y1="152.6563" y2="152.6563"/><text fill="#000000" font-family="sans-serif" font-size="14" lengthAdjust="spacing" textLength="67" x="13" y="171.1895">createUrl()</text><text fill="#000000" font-family="sans-serif" font-size="14" lengthAdjust="spacing" textLength="47" x="13" y="188.7988">getUrl()</text><text fill="#000000" font-family="sans-serif" font-size="14" lengthAdjust="spacing" textLength="66" x="13" y="206.4082">deleteUrl()</text></g><!--MD5=[3fd616f346a44cd59a91eb10b19e157c]
class User--><g id="elem_User"><rect codeLine="15" fill="#F1F1F1" height="100.8281" id="User" rx="2.5" ry="2.5" style="stroke:#181818;stroke-width:0.5;" width="118" x="18.5" y="273"/><ellipse cx="59.15" cy="289" fill="#ADD1B2" rx="11" ry="11" style="stroke:#181818;stroke-width:1.0;"/><path d="M61.15,285.5 Q61.3531,285 61.5875,284.75 Q61.8219,284.5 62.0875,284.5 Q62.5563,284.5 62.8531,284.7813 Q63.15,285.0625 63.15,285.7188 L63.15,287.2813 Q63.15,287.9375 62.8688,288.2188 Q62.5875,288.5 62.15,288.5 Q61.7594,288.5 61.5094,288.3281 Q61.2594,288.1563 61.15,287.7031 Q61.1031,287.3906 60.9313,287.2188 Q60.6188,286.8906 60.0563,286.7031 Q59.4938,286.5 58.9313,286.5 Q58.2281,286.5 57.6344,286.7813 Q57.0563,287.0625 56.6031,287.6875 Q56.15,288.3125 56.15,289.1719 L56.15,290.0938 Q56.15,291.125 56.9938,291.8125 Q57.8375,292.5 59.3375,292.5 Q60.2281,292.5 60.8531,292.2969 Q61.2125,292.1875 61.6188,291.8281 Q61.8844,291.625 62.025,291.5625 Q62.1656,291.5 62.3375,291.5 Q62.6656,291.5 62.9,291.7656 Q63.15,292.0156 63.15,292.375 Q63.15,292.7188 62.8063,293.125 Q62.3063,293.7188 61.5094,294.0469 Q60.4625,294.5 59.1813,294.5 Q57.6813,294.5 56.4781,293.9063 Q55.5094,293.4375 54.8219,292.4219 Q54.15,291.4063 54.15,290.2031 L54.15,289.1094 Q54.15,287.8594 54.7438,286.7656 Q55.3531,285.6719 56.4,285.0938 Q57.4625,284.5 58.65,284.5 Q59.3688,284.5 59.9938,284.75 Q60.6188,285 61.15,285.5 Z " fill="#000000"/><text fill="#000000" font-family="sans-serif" font-size="14" lengthAdjust="spacing" textLength="29" x="78.85" y="294.7285">User</text><line style="stroke:#181818;stroke-width:0.5;" x1="19.5" x2="135.5" y1="305" y2="305"/><text fill="#000000" font-family="sans-serif" font-size="14" lengthAdjust="spacing" textLength="54" x="24.5" y="323.5332">id: string</text><text fill="#000000" font-family="sans-serif" font-size="14" lengthAdjust="spacing" textLength="106" x="24.5" y="341.1426">username: string</text><text fill="#000000" font-family="sans-serif" font-size="14" lengthAdjust="spacing" textLength="76" x="24.5" y="358.752">email: string</text><line style="stroke:#181818;stroke-width:0.5;" x1="19.5" x2="135.5" y1="365.8281" y2="365.8281"/></g><!--MD5=[378fb16b90e87ee5b193c3c3e2f3496d]
link ShortenedUrl to User--><g id="link_ShortenedUrl_User"><path codeLine="1" d="M77.5,221.33 C77.5,236.27 77.5,251.09 77.5,264.59 " fill="none" id="ShortenedUrl-User" style="stroke:#181818;stroke-width:1.0;"/><line style="stroke:#181818;stroke-width:1.0;" x1="77.5" x2="83.5" y1="264.81" y2="272.81"/><line style="stroke:#181818;stroke-width:1.0;" x1="77.5" x2="71.5" y1="264.81" y2="272.81"/><line style="stroke:#181818;stroke-width:1.0;" x1="77.5" x2="77.5" y1="264.81" y2="272.81"/><ellipse cx="77.5" cy="258.81" fill="none" rx="4" ry="4" style="stroke:#181818;stroke-width:1.0;"/><line style="stroke:#181818;stroke-width:1.0;" x1="77.5" x2="77.5" y1="224.03" y2="213.03"/><ellipse cx="77.5" cy="224.03" fill="none" rx="4" ry="4" style="stroke:#181818;stroke-width:1.0;"/><line style="stroke:#181818;stroke-width:1.0;" x1="73.5" x2="81.5" y1="217.03" y2="217.03"/></g><!--MD5=[6be1314916405c52aabd6d471171df04]
@startuml
ShortenedUrl |o- -o{ User
class ShortenedUrl {
  id: string
  createdDate: Date
  expirationDate: Date
  originalUrl: URL
  customAlias?: string
  userId?: User
  
  createUrl()
  getUrl()
  deleteUrl()
}

class User {
  id: string
  username: string
  email: string
}

@enduml

PlantUML version 1.2022.4(Sat Apr 09 08:29:17 CDT 2022)
(GPL source distribution)
Java Runtime: OpenJDK Runtime Environment
JVM: OpenJDK 64-Bit Server VM
Default Encoding: Cp1252
Language: en
Country: US
--></g></svg>